SplineFontDB: 1.0
FontName: MnSymbolS10
FullName: MnSymbolS10
FamilyName: MnSymbolS10
Weight: Regular
Copyright: Generated from MetaFont bitmap by mftrace 1.1.17, http://www.xs4all.nl/~hanwen/mftrace/ 
Version: 001.001
ItalicAngle: 0
UnderlinePosition: -100
UnderlineWidth: 50
Ascent: 800
Descent: 200
NeedsXUIDChange: 1
UniqueID: 4020516
OS2TypoAscent: 0
OS2TypoAOffset: 1
OS2TypoDescent: 0
OS2TypoDOffset: 1
OS2TypoLinegap: 0
OS2WinAscent: 0
OS2WinAOffset: 1
OS2WinDescent: 0
OS2WinDOffset: 1
HheadAscent: 0
HheadAOffset: 1
HheadDescent: 0
HheadDOffset: 1
OS2Vendor: 'PfEd'
Encoding: Custom
UnicodeInterp: none
NameList: Adobe Glyph List
DisplaySize: -24
AntiAlias: 1
FitToEm: 1
WinInfo: 54 18 9
BeginPrivate: 3
lenIV 1 4
BlueValues 2 []
ForceBold 5 false
EndPrivate
BeginChars: 256 28
StartChar: A
Encoding: 65 65 2
Width: 794
Flags: HMW
Back
99.1455 58.8555 m 0
 105.412 53.957 112.615 49.9883 120.518 47.1123 c 0
 127.64 44.5195 135.332 42.8125 143.413 42.0645 c 0
 186.385 38.0869 255.273 138.819 312.86 223.836 c 0
 409.824 366.988 493.594 514.529 563.417 664.258 c 1
 603.825 664.258 l 1
 602.238 660.614 l 2
 524.001 488.419 430.062 321.613 322.305 162.526 c 0
 250.396 56.3662 171.557 -55.2295 113.674 -49.8711 c 0
 104.412 -49.0137 95.5889 -47.0625 87.334 -44.0576 c 0
 78.1748 -40.7246 69.7158 -36.0986 62.1406 -30.1787 c 0
 61.6924 -29.8281 29.9932 -7.21191 26.2129 32.2578 c 0
 24.4736 50.4131 33.5879 79.5547 46.5576 97.3066 c 0
 59.5273 115.059 71.4648 114.731 73.2041 96.5762 c 0
 74.4443 83.6289 89.4971 66.3965 99.1455 58.8555 c 0
678.213 214.472 m 0
 683.438 157.589 693.916 102.473 709.521 49.7373 c 0
 710.27 47.2051 711.275 44.8721 712.498 42.7549 c 0
 719.053 31.4023 731.314 26.7266 740.669 28.083 c 0
 741.713 28.2354 739.359 27.8877 735.141 25.7588 c 1
 752.344 34.4385 l 2
 776.036 46.3916 796.431 47.5439 797.867 37.0107 c 0
 799.305 26.4766 781.241 8.22656 757.549 -3.72754 c 2
 740.347 -12.4062 l 2
 721.168 -22.083 704.152 -26.8828 691.42 -28.7295 c 0
 672.457 -31.4814 642.607 -30.3848 628.41 -5.79297 c 0
 626.65 -2.74512 625.223 0.573242 624.162 4.15918 c 0
 608.28 57.8311 597.611 113.936 592.288 171.893 c 0
 577.184 336.349 571.112 503.55 574.103 672.864 c 0
 574.303 684.197 593.729 702.483 617.464 713.683 c 0
 641.199 724.881 660.3 724.772 660.1 713.439 c 0
 657.121 544.828 663.168 378.291 678.213 214.472 c 0
330.531 164.683 m 2
 314 164.683 314.066 177.45 330.68 193.183 c 0
 347.293 208.914 374.193 221.683 390.725 221.682 c 2
 665.347 221.682 l 2
 681.878 221.682 681.812 208.914 665.198 193.182 c 0
 648.585 177.45 621.685 164.682 605.153 164.682 c 2
 330.531 164.683 l 2
EndSplineSet
Fore
26 39 m 0
 26 80 54 110 64 110 c 0
 69 110 72 106 73 97 c 0
 75 76 110 42 146 42 c 0
 189 42 256 140 313 224 c 0
 410 367 494 515 563 664 c 1
 574 664 l 1
 574 664 570 691 617 714 c 0
 629 719 640 722 648 722 c 0
 655 722 660 719 660 714 c 0
 660 705 659 680 659 630 c 0
 659 490 666 351 678 214 c 0
 685 145 705 56 712 43 c 0
 718 33 729 28 737 28 c 2
 739 28 l 1
 752 34 l 2
 765 41 777 44 785 44 c 0
 791 44 798 43 798 36 c 0
 798 25 780 8 758 -4 c 2
 740 -12 l 2
 717 -24 695 -30 677 -30 c 0
 650 -30 631 -18 624 4 c 0
 609 56 599 109 593 165 c 1
 324 165 l 1
 255 63 175 -50 118 -50 c 0
 83 -50 26 -20 26 39 c 0
588 222 m 1
 578 343 573 465 573 589 c 2
 573 598 l 1
 526 499 450 357 354 210 c 1
 366 217 379 222 391 222 c 2
 588 222 l 1
EndSplineSet
EndChar
StartChar: B
Encoding: 66 66 3
Width: 656
Flags: HMW
Back
108.399 190.056 m 0
 145.373 337.949 174.036 485.759 194.247 632.776 c 1
 170.82 620.957 l 2
 147.128 609.004 126.733 607.852 125.297 618.386 c 0
 123.859 628.919 141.923 647.17 165.615 659.123 c 2
 237.859 695.572 l 2
 250.825 702.114 261.793 705.355 270.952 705.354 c 0
 280.111 705.351 284.227 702.105 283.368 695.561 c 0
 262.904 539.491 232.944 382.432 193.634 225.19 c 0
 176.334 155.992 149.565 86.9004 113.756 19.5625 c 0
 106.175 5.30566 81.7666 -12.0371 59.2744 -19.1504 c 0
 36.7812 -26.2627 24.6797 -20.4648 32.2617 -6.20801 c 0
 66.001 57.2373 91.7295 123.376 108.399 190.056 c 0
339.85 35.541 m 0
 396.143 35.541 441.253 51.1816 466.723 65.8867 c 0
 520.055 96.6768 532.055 148.693 533.679 155.188 c 0
 543.813 195.728 540.602 236.17 520.592 270.829 c 0
 483.489 335.095 400.768 361.513 317.979 347.531 c 0
 299.175 344.355 292.935 351.619 302.348 365.728 c 0
 311.761 379.835 332.276 393.967 353.739 401.128 c 0
 428.564 426.091 476.827 443.753 512.681 464.453 c 0
 542.697 481.783 565.938 503.376 574.75 538.626 c 0
 580.754 562.644 577.638 584.945 567.289 602.87 c 0
 548.207 635.922 507.463 650.881 468.171 647.746 c 0
 458.979 647.014 434.886 644.487 412.493 633.955 c 0
 409.318 632.462 406.346 630.903 403.336 629.166 c 0
 336.896 590.807 254.829 469.974 193.634 225.19 c 0
 190.474 212.549 168.815 194.419 145.291 184.722 c 0
 121.767 175.024 105.239 177.414 108.399 190.056 c 0
 189.771 515.545 303.036 612.901 385.305 660.398 c 0
 394.483 665.698 403.956 670.66 413.488 675.144 c 0
 452.05 693.28 488.82 702.479 523.349 705.232 c 0
 586.421 710.265 631.543 685.772 651.378 651.418 c 0
 660.315 635.938 669.037 609.975 659.983 573.761 c 0
 651.867 541.296 625.397 487.887 530.713 433.22 c 0
 512.604 422.766 493.244 413.133 473.755 404.354 c 1
 534.951 392.949 580.517 361.23 604.68 319.377 c 0
 619.528 293.657 633.955 250.492 618.913 190.323 c 0
 603.272 127.76 551.965 73.457 484.755 34.6543 c 0
 412.205 -7.23145 337.963 -22.1855 278.888 -22.1855 c 0
 214.418 -22.1865 163.548 3.25781 132.947 43.3252 c 0
 126.862 51.293 140.544 68.957 163.487 82.7539 c 0
 186.43 96.5518 209.988 101.283 216.073 93.3164 c 0
 245.667 54.5664 291.83 35.541 339.85 35.541 c 0
EndSplineSet
Fore
664 604 m 0
 664 495 521 426 474 404 c 1
 558 389 625 329 625 240 c 0
 625 83 432 -22 279 -22 c 0
 179 -22 132 41 132 48 c 0
 132 65 177 97 205 97 c 0
 210 97 214 96 216 93 c 0
 246 55 292 36 340 36 c 0
 434 36 539 77 539 199 c 0
 539 290 462 351 361 351 c 0
 331 351 320 347 310 347 c 0
 302 347 298 350 298 355 c 0
 298 358 299 361 302 366 c 0
 345 430 578 428 578 563 c 0
 578 617 529 648 475 648 c 0
 451 648 426 642 403 629 c 0
 337 591 255 470 194 225 c 0
 176 156 150 87 114 20 c 0
 104 2 66 -22 43 -22 c 0
 35 -22 30 -19 30 -14 c 0
 30 -3 76 61 108 190 c 0
 145 338 174 486 194 633 c 1
 171 621 l 2
 158 614 146 611 138 611 c 0
 132 611 125 613 125 620 c 0
 125 630 143 648 166 659 c 2
 238 696 l 2
 252 703 263 706 271 706 c 0
 279 706 283 702 283 697 c 0
 283 692 270 599 262 550 c 1
 367 688 494 705 536 705 c 0
 611 705 664 666 664 604 c 0
EndSplineSet
EndChar
StartChar: C
Encoding: 67 67 4
Width: 526
Flags: HMW
Back
440.715 565.544 m 0
 451.053 593.84 447.408 615.144 440.805 626.581 c 0
 436.965 633.231 431.355 638.249 424.511 641.177 c 0
 419.371 643.375 408.049 647.626 392.533 647.626 c 0
 338.899 647.626 300.74 634.096 275.797 619.695 c 0
 221.994 588.632 149.851 506.979 112.895 359.15 c 0
 89.7266 266.48 92.8066 173.41 128.931 110.84 c 0
 140.939 90.0391 171.265 46.3311 238.152 35.2275 c 0
 268.475 30.1943 308.706 33.4609 343.473 53.5342 c 0
 363.398 65.0381 391.027 88.1738 413.034 125.066 c 0
 421.741 139.664 446.729 156.692 468.811 163.076 c 0
 490.892 169.46 501.745 162.794 493.038 148.196 c 0
 466.267 103.316 422.77 57.6729 361.504 22.3008 c 0
 296.085 -15.4678 227.651 -31.6191 168.946 -21.873 c 0
 93.6504 -9.37402 59.998 36.04 44.8418 62.292 c 0
 9.51953 123.475 0.958984 217.212 27.6602 324.016 c 0
 56.0088 437.412 119.239 570.95 257.766 650.928 c 0
 324.452 689.429 390.896 705.353 453.494 705.353 c 0
 471.816 705.354 487.291 702.049 500.686 696.321 c 0
 512.015 691.476 519.733 684.066 524.893 675.129 c 0
 538.381 651.767 533.136 619.823 524.89 597.252 c 0
 511.691 561.127 494.892 525.287 474.546 490.146 c 0
 466.146 475.639 441.312 458.519 419.111 451.933 c 0
 396.911 445.347 385.711 451.775 394.111 466.283 c 0
 412.653 498.309 428.32 531.617 440.715 565.544 c 0
EndSplineSet
Fore
391 458 m 0
 391 467 447 546 447 602 c 0
 447 639 418 648 393 648 c 0
 339 648 301 634 276 620 c 0
 175 562 98 387 98 243 c 0
 98 75 198 33 264 33 c 0
 319 33 375 61 413 125 c 0
 424 143 460 165 483 165 c 0
 491 165 496 162 496 157 c 0
 496 155 495 152 493 148 c 0
 436 53 313 -25 204 -25 c 0
 127 -25 12 18 12 204 c 0
 12 243 18 284 28 324 c 0
 93 584 283 705 453 705 c 0
 492 705 533 693 533 642 c 0
 533 614 519 568 475 490 c 0
 464 472 427 449 404 449 c 0
 396 449 391 452 391 458 c 0
EndSplineSet
EndChar
StartChar: D
Encoding: 68 68 5
Width: 769
Flags: HMW
Back
226.867 324.017 m 0
 252.876 428.051 269.635 531.979 276.912 634.532 c 0
 277.736 646.156 297.658 664.434 321.38 675.33 c 0
 345.102 686.227 363.685 685.637 362.859 674.013 c 0
 355.49 570.158 338.516 464.807 312.102 359.15 c 0
 285.688 253.494 249.939 147.949 205.205 43.6836 c 0
 199.335 30.001 175.905 12.2715 152.906 4.10742 c 0
 129.908 -4.05664 116.007 0.421875 121.877 14.1045 c 0
 165.701 116.248 200.859 219.981 226.867 324.017 c 0
261.658 57.7578 m 2
 354.767 57.7578 440.485 84.3486 503.094 120.495 c 0
 631.793 194.799 661.536 304.489 667.98 330.267 c 0
 686.571 404.627 679.922 465.029 653.159 511.385 c 0
 609.322 587.314 511.338 625.409 382.867 625.409 c 2
 289.404 625.409 l 2
 272.663 625.409 272.73 638.34 289.556 654.272 c 0
 306.382 670.205 333.625 683.136 350.367 683.136 c 2
 443.829 683.136 l 2
 584.835 683.136 690.069 641.649 737.248 559.933 c 0
 766.047 510.049 773.145 445.12 753.215 365.4 c 0
 725.284 253.676 638.58 157.074 521.125 89.2627 c 0
 409.54 24.8398 293.69 0.0302734 200.696 0.0302734 c 2
 90.0156 0.0302734 l 2
 73.2734 0.0302734 73.3408 12.9619 90.166 28.8936 c 0
 106.992 44.8262 134.235 57.7578 150.978 57.7578 c 2
 261.658 57.7578 l 2
150.875 596.295 m 0
 143.09 591.8 136.409 586.563 130.068 579.634 c 0
 121.113 569.848 110.97 554.38 105.621 532.987 c 0
 102.461 520.346 80.8037 502.215 57.2793 492.519 c 0
 33.7539 482.821 17.2266 485.211 20.3877 497.853 c 0
 26.8105 523.548 39.5586 547.606 61.8389 571.956 c 0
 79.9658 591.766 105.491 611.735 132.844 627.527 c 0
 142.871 633.316 139.788 631.442 141.535 632.39 c 0
 217.496 673.566 296.973 683.137 350.367 683.136 c 0
 367.109 683.136 367.041 670.205 350.216 654.272 c 0
 333.391 638.34 306.146 625.409 289.405 625.409 c 0
 244.259 625.409 188.467 616.716 153.454 597.736 c 0
 152.417 597.175 154.25 598.243 150.875 596.295 c 0
EndSplineSet
Fore
262 58 m 2
 480 58 678 198 678 409 c 0
 678 547 571 625 383 625 c 2
 359 625 l 1
 336 398 272 201 211 58 c 1
 262 58 l 2
765 451 m 0
 765 194 466 0 201 0 c 2
 90 0 l 2
 81 0 78 3 78 8 c 0
 78 22 110 50 139 56 c 1
 207 223 260 416 276 625 c 1
 129 619 112 558 106 533 c 0
 100 510 54 487 32 487 c 0
 25 487 20 489 20 495 c 0
 20 520 57 586 142 632 c 0
 217 674 297 683 350 683 c 2
 444 683 l 2
 619 683 765 615 765 451 c 0
EndSplineSet
EndChar
StartChar: E
Encoding: 69 69 6
Width: 530
Flags: HMW
Back
472.104 569.414 m 0
 478.438 581.126 483.605 600.374 473.189 618.414 c 0
 468.821 625.98 461.995 631.886 453.953 635.173 c 0
 433.513 643.527 410.973 647.626 388.616 647.626 c 0
 366.805 647.626 327.724 643.414 296.061 625.134 c 0
 288.307 620.657 285.226 618.114 282.843 616.27 c 0
 266.555 603.659 244.937 579.33 236.025 543.684 c 0
 229.112 516.031 232.639 491.635 244.319 471.401 c 0
 269.653 427.521 330.993 404.607 398.686 404.607 c 0
 415.428 404.607 415.36 391.677 398.535 375.744 c 0
 381.71 359.812 354.467 346.881 337.725 346.881 c 0
 260.186 346.881 189.224 372.636 160.231 422.854 c 0
 146.825 446.074 142.295 474.563 150.791 508.55 c 0
 159.167 542.053 182.077 586.384 236.986 628.896 c 0
 249.665 638.713 263.614 648.045 278.029 656.367 c 0
 337.979 690.979 398.947 705.353 449.578 705.353 c 0
 479.528 705.354 506.219 700.093 529.774 690.465 c 0
 542.509 685.261 551.461 677.038 557.278 666.962 c 0
 572.354 640.849 562.639 611.898 553.405 594.827 c 0
 550.702 589.829 547.819 584.842 544.747 579.864 c 0
 535.672 565.162 510.507 548.247 488.574 542.107 c 0
 466.642 535.968 456.206 542.918 465.28 557.62 c 0
 467.656 561.469 469.935 565.406 472.104 569.414 c 0
228.889 318.398 m 0
 170.712 284.811 132.858 225.041 119.565 171.869 c 0
 110.936 137.349 119.678 112.79 128.203 98.0225 c 0
 151.856 57.0527 205.404 35.541 262.527 35.54 c 0
 287.189 35.54 318.212 40.7295 347.552 57.6689 c 0
 368.12 69.5439 394.788 91.6709 417.267 126.235 c 0
 426.933 141.099 452.372 157.819 474.051 163.558 c 0
 495.729 169.296 505.479 161.891 495.812 147.027 c 0
 453.662 82.2129 395.562 43.7441 365.584 26.4365 c 0
 307.67 -6.99902 249.577 -22.1865 201.565 -22.1865 c 0
 128.795 -22.1865 69.499 5.50586 44.1152 49.4746 c 0
 30.418 73.1992 25.7334 102.343 34.3311 136.734 c 0
 53.2725 212.499 112.331 292.748 210.856 349.632 c 0
 275.697 387.066 341.944 404.607 398.686 404.607 c 0
 415.428 404.607 415.36 391.677 398.535 375.744 c 0
 381.71 359.812 354.467 346.881 337.725 346.881 c 0
 306.221 346.881 266.473 340.098 228.889 318.398 c 0
EndSplineSet
Fore
479 598 m 0
 479 638 423 648 389 648 c 0
 289 648 233 584 233 516 c 0
 233 447 305 405 399 405 c 0
 407 405 411 402 411 397 c 0
 411 381 369 347 338 347 c 0
 185 347 116 204 116 144 c 0
 116 82 173 36 263 36 c 0
 331 36 382 72 417 126 c 0
 431 147 468 166 487 166 c 0
 495 166 500 162 500 157 c 0
 500 154 498 151 496 147 c 0
 426 40 298 -22 202 -22 c 0
 114 -22 30 21 30 103 c 0
 30 160 81 287 237 364 c 1
 184 383 146 421 146 475 c 0
 146 588 300 705 450 705 c 0
 534 705 565 673 565 637 c 0
 565 587 515 540 475 540 c 0
 467 540 462 543 462 548 c 0
 462 558 479 573 479 598 c 0
EndSplineSet
EndChar
StartChar: F
Encoding: 70 70 7
Width: 718
Flags: HMW
Back
110.713 73.3721 m 0
 132.429 35.7588 171.149 24.8018 199.116 24.8643 c 0
 201.702 24.8701 202.896 25.1543 203.066 25.1885 c 0
 203.07 25.1895 200.007 24.1533 197.189 22.5273 c 1
 197.306 22.5938 195.215 21.2676 195.241 21.2871 c 0
 198.544 23.7695 207.062 32.6572 214.812 47.0293 c 0
 261.915 134.372 302.307 223.904 335.463 314.623 c 0
 374.351 421.023 402.608 528.59 419.71 635.543 c 0
 421.648 647.666 442.421 665.896 466.078 676.234 c 0
 489.734 686.572 507.361 685.125 505.423 673.002 c 0
 488.054 564.38 459.334 454.946 419.636 346.326 c 0
 385.819 253.801 344.54 162.235 296.148 72.5039 c 0
 287.006 55.5508 269.829 30.2197 238.504 6.68164 c 0
 229.965 0.265625 222.462 -4.52539 215.222 -8.70508 c 0
 189.836 -23.3613 169.101 -28.709 160.016 -30.5439 c 0
 152.927 -31.9766 146.025 -32.8457 138.296 -32.8623 c 0
 85.792 -32.9785 46.3311 -9.30859 26.625 24.8242 c 0
 22.9619 31.1689 19.8701 37.9902 17.4082 45.2715 c 0
 14.165 54.8613 30.6162 72.9697 54.1299 85.6934 c 0
 77.6436 98.417 99.3584 100.96 102.602 91.3711 c 0
 104.772 84.9502 107.497 78.9414 110.713 73.3721 c 0
739.833 610.943 m 0
 732.514 623.621 708.59 625.41 663.687 625.41 c 2
 376.691 625.41 l 2
 366.712 625.41 340.319 624.501 313.955 613.255 c 0
 309.467 611.34 305.681 609.423 302.194 607.41 c 0
 293.688 602.499 287.828 597.343 285.618 595.369 c 0
 272.064 583.27 255.562 562.022 248.303 532.987 c 0
 245.143 520.346 223.485 502.216 199.961 492.519 c 0
 176.436 482.821 159.908 485.211 163.068 497.853 c 0
 169.144 522.153 184.745 559.57 228.784 598.885 c 0
 242.341 610.988 260.663 625.075 284.162 638.644 c 0
 296.904 645.999 309.995 652.502 322.852 657.986 c 0
 370.843 678.458 410.864 683.137 437.653 683.137 c 2
 724.648 683.137 l 2
 761.291 683.137 809.898 683.779 823.921 659.491 c 0
 827.914 652.575 828.972 643.556 826.187 632.413 c 0
 823.026 619.771 801.369 601.642 777.845 591.944 c 0
 754.319 582.247 737.792 584.637 740.952 597.278 c 0
 742.41 603.107 741.875 607.406 739.833 610.943 c 0
609.19 301.975 m 1
 347.453 301.975 l 2
 330.922 301.975 330.988 314.743 347.602 330.475 c 0
 364.215 346.207 391.115 358.975 407.646 358.975 c 2
 669.384 358.975 l 2
 679.17 358.975 683.215 355.21 681.368 347.821 c 2
 678.938 338.101 l 2
 675.817 325.618 654.434 307.716 631.205 298.141 c 0
 607.977 288.566 591.657 290.926 594.777 303.408 c 2
 597.207 313.129 l 1
 607.033 319.37 617.691 321.938 620.999 318.858 c 0
 624.307 315.78 619.017 308.217 609.19 301.975 c 1
EndSplineSet
Fore
828 644 m 0
 828 606 769 586 752 586 c 0
 745 586 741 589 741 594 c 0
 741 596 742 600 742 603 c 0
 742 620 720 625 664 625 c 2
 497 625 l 1
 479 530 453 440 424 359 c 1
 669 359 l 2
 679 359 683 355 681 348 c 2
 679 338 l 2
 673 316 628 293 606 293 c 0
 598 293 594 295 594 302 c 1
 403 302 l 1
 369 214 331 137 296 73 c 0
 269 23 201 -33 138 -33 c 0
 47 -33 17 37 17 48 c 0
 17 68 66 97 91 97 c 0
 97 97 101 95 103 91 c 0
 123 32 180 25 199 25 c 1
 234 64 371 341 418 625 c 1
 377 625 l 2
 313 625 263 593 248 533 c 0
 243 510 196 487 174 487 c 0
 167 487 163 489 163 495 c 2
 163 498 l 1
 189 603 329 683 438 683 c 2
 737 683 l 2
 774 683 828 681 828 644 c 0
EndSplineSet
EndChar
StartChar: G
Encoding: 71 71 8
Width: 595
Flags: HMW
Back
508.202 572.355 m 0
 518.704 594.235 512.132 611.326 508.159 618.209 c 0
 503.562 626.169 496.142 632.15 487.672 635.053 c 0
 463.094 643.474 436.597 647.626 409.949 647.626 c 0
 375.58 647.626 325.621 642.315 281.924 617.087 c 0
 234.773 589.864 171.354 523.324 141.628 404.419 c 0
 122.085 326.248 127.443 249.261 157.933 196.449 c 0
 189.475 141.816 237.733 127.367 275.135 126.06 c 0
 313.996 124.701 341.518 137.411 355.193 145.307 c 0
 393.528 167.438 455.426 229.425 479.073 324.017 c 0
 482.233 336.658 503.891 354.788 527.415 364.485 c 0
 550.94 374.182 567.468 371.792 564.307 359.15 c 0
 544.128 278.431 484.324 178.217 373.226 114.074 c 0
 288.828 65.3477 226.149 67.877 212.064 68.3691 c 0
 143.659 70.7607 99.4697 103.517 73.8447 147.901 c 0
 40.9268 204.918 35.4385 285.463 56.3936 369.285 c 0
 98.5996 538.107 208.603 616.398 263.893 648.319 c 0
 335.877 689.879 407.327 705.353 470.911 705.353 c 0
 504.084 705.353 534.527 700.313 562.113 690.861 c 0
 576.351 685.983 586.074 677.448 592.247 666.756 c 0
 606.445 642.163 598.27 615.878 590.699 600.105 c 0
 575.297 568.016 555.073 536.557 529.504 506.191 c 0
 516.358 490.579 489.649 475.328 469.887 472.148 c 0
 450.123 468.969 444.753 479.06 457.899 494.672 c 0
 477.392 517.821 494.721 544.268 508.202 572.355 c 0
279.155 -61.6582 m 0
 291.011 -61.6582 299.148 -60.1162 300.182 -59.9346 c 0
 307.489 -58.6475 314.137 -56.6416 318.8 -53.9492 c 0
 326.429 -49.5449 328.382 -46.9541 331.565 -43.9775 c 0
 409.646 29.0068 456.067 231.991 479.073 324.017 c 0
 482.233 336.658 503.891 354.788 527.415 364.485 c 0
 550.94 374.183 567.468 371.792 564.308 359.15 c 0
 515.984 165.86 477.146 35.3955 391.421 -44.7344 c 0
 382.736 -52.8525 364.028 -69.4805 336.831 -85.1826 c 0
 308.468 -101.558 278.859 -111.878 254.188 -116.224 c 0
 241.691 -118.426 229.862 -119.385 218.193 -119.385 c 0
 155.272 -119.385 100.018 -103.95 54.6426 -75.4258 c 0
 45.291 -69.5469 55.4062 -52.7568 77.2217 -37.9482 c 0
 99.0381 -23.1406 124.334 -15.8936 133.686 -21.7725 c 0
 154.892 -35.1035 204.119 -61.6582 279.155 -61.6582 c 0
EndSplineSet
Fore
125 -20 m 0
 139 -20 181 -62 279 -62 c 0
 316 -62 324 -51 332 -44 c 0
 375 -3 409 77 434 157 c 1
 368 101 289 68 219 68 c 0
 115 68 44 142 44 275 c 0
 44 497 234 705 471 705 c 0
 507 705 573 699 592 667 c 0
 598 657 600 647 600 637 c 0
 600 603 563 546 530 506 c 0
 515 489 482 472 463 472 c 0
 455 472 451 475 451 480 c 0
 451 493 514 555 514 597 c 0
 514 637 463 648 410 648 c 0
 376 648 326 642 282 617 c 0
 192 565 130 430 130 314 c 0
 130 199 190 126 280 126 c 0
 400 126 464 263 479 324 c 0
 485 347 531 370 553 370 c 0
 560 370 565 368 565 362 c 1
 565 362 508 64 391 -45 c 0
 359 -75 295 -119 218 -119 c 0
 155 -119 100 -104 55 -75 c 1
 52 -74 51 -71 51 -69 c 0
 51 -52 100 -20 125 -20 c 0
EndSplineSet
EndChar
StartChar: H
Encoding: 72 72 9
Width: 842
Flags: HMW
Back
266.18 370.163 m 0
 283.753 440.454 295.514 510.679 301.332 580.088 c 0
 302.131 589.619 300.17 598.545 295.978 605.808 c 0
 287.515 620.466 272.66 625.415 261.651 625.409 c 0
 212.976 625.387 186.735 614.872 179.414 611.934 c 0
 174.031 609.771 169.896 607.715 166.136 605.543 c 0
 158.273 601.004 152.288 595.826 149.887 593.704 c 0
 135.78 581.239 118.043 558.8 104.369 529.53 c 0
 97.876 515.632 74.0771 498.03 51.2461 490.241 c 0
 28.416 482.452 15.1562 487.411 21.6494 501.31 c 0
 43.7168 548.544 72.4824 579.046 93.7588 597.848 c 0
 107.192 609.719 125.058 623.471 148.104 636.775 c 0
 162.89 645.312 178.085 652.615 192.747 658.502 c 0
 248.24 680.783 296.852 683.124 322.584 683.137 c 0
 331.134 683.141 363.966 682.241 380.065 654.355 c 0
 385.692 644.608 388.394 632.836 387.258 619.291 c 0
 381.338 548.656 369.364 477.096 351.414 405.297 c 0
 317.816 270.906 274.922 136.616 223.008 3.36426 c 0
 217.767 -10.0898 194.724 -27.9355 171.573 -36.4688 c 0
 148.424 -45.002 133.89 -41.0078 139.132 -27.5527 c 0
 190.438 104.139 232.899 237.041 266.18 370.163 c 0
654.682 266.616 m 0
 636.809 195.126 624.789 123.704 618.752 53.0957 c 0
 617.927 43.4414 619.896 34.3623 624.106 27.0674 c 0
 632.089 13.2422 646.107 8.13379 656.862 8.66016 c 0
 671.769 9.38965 702.796 12.0469 714.949 17.3926 c 0
 714.96 17.3975 712.938 16.3301 712.995 16.3633 c 1
 712.326 15.9766 708.173 13.4121 707.566 12.6475 c 1
 710.474 16.3164 713.323 22.5186 715.108 29.6602 c 0
 718.27 42.3018 739.927 60.4316 763.451 70.1289 c 0
 786.976 79.8252 803.503 77.4355 800.343 64.7939 c 0
 795.288 44.5781 784.409 30.6973 781.241 26.6992 c 0
 763.325 4.08691 736.499 -11.71 731.026 -14.8691 c 0
 721.187 -20.5508 712.911 -24.3379 708.442 -26.3047 c 0
 663.16 -46.2236 617.468 -48.0908 599.275 -48.9814 c 0
 567.015 -50.5605 548.646 -36.4238 540.019 -21.4805 c 0
 534.347 -11.6562 531.66 0.261719 532.829 13.9277 c 0
 538.97 85.7529 551.201 158.499 569.447 231.481 c 0
 603.491 367.658 646.831 503.733 699.191 638.783 c 0
 704.403 652.227 727.428 670.077 750.584 678.628 c 0
 773.74 687.178 788.304 683.207 783.092 669.763 c 0
 731.326 536.247 688.412 401.54 654.682 266.616 c 0
158.915 278.924 m 2
 142.384 278.924 142.45 291.692 159.063 307.424 c 0
 175.677 323.156 202.577 335.924 219.108 335.924 c 2
 614.283 335.924 l 2
 630.814 335.925 630.748 323.156 614.135 307.425 c 0
 597.521 291.692 570.621 278.925 554.09 278.925 c 2
 158.915 278.924 l 2
EndSplineSet
Fore
138 -33 m 0
 138 -27 194 105 242 279 c 1
 159 279 l 2
 150 279 147 282 147 286 c 0
 147 302 188 336 219 336 c 2
 257 336 l 1
 285 443 302 554 302 584 c 0
 302 609 283 625 262 625 c 0
 176 625 136 597 104 530 c 0
 94 506 52 487 32 487 c 0
 24 487 20 489 20 495 c 0
 20 496 20 499 22 501 c 1
 75 616 195 683 323 683 c 0
 368 683 387 654 387 625 c 0
 387 571 358 426 333 336 c 1
 597 336 l 1
 639 485 688 610 699 639 c 0
 708 662 752 683 773 683 c 0
 780 683 784 681 784 675 c 0
 784 674 784 672 783 670 c 0
 675 390 619 133 619 49 c 0
 619 25 636 9 655 9 c 0
 664 9 694 11 709 15 c 1
 715 27 716 51 763 70 c 0
 773 74 782 76 788 76 c 0
 796 76 801 73 801 68 c 0
 801 25 717 -49 594 -49 c 0
 554 -49 533 -23 533 8 c 0
 533 60 561 199 584 287 c 1
 574 282 564 279 554 279 c 2
 317 279 l 1
 277 142 233 30 223 3 c 0
 214 -19 171 -41 149 -41 c 0
 142 -41 138 -38 138 -33 c 0
EndSplineSet
EndChar
StartChar: I
Encoding: 73 73 10
Width: 543
Flags: HMW
Back
324.213 625.409 m 2
 247.104 625.409 190.513 622.399 150.977 609.364 c 0
 142.997 606.733 138.573 604.477 137.132 603.646 c 0
 131.613 600.459 125.639 591.178 123.526 587.41 c 0
 120.088 581.276 116.82 573.388 114.5 564.104 c 0
 111.339 551.461 89.6816 533.331 66.1572 523.634 c 0
 42.6328 513.938 26.1055 516.327 29.2656 528.969 c 0
 30.9473 535.696 34.6182 548.444 42.6602 562.79 c 0
 57.3984 589.083 83.6826 614.43 119.101 634.878 c 0
 135.979 644.623 155.012 653.308 176.338 660.338 c 0
 223.587 675.916 276.391 683.137 385.174 683.137 c 2
 624.309 683.136 l 2
 641.051 683.136 640.984 670.205 624.158 654.272 c 0
 607.334 638.34 580.09 625.409 563.348 625.409 c 2
 324.213 625.409 l 2
446.525 628.548 m 1
 446.236 628.381 450.008 630.814 449.893 630.716 c 0
 400.773 588.42 356.764 398.57 346.91 359.15 c 0
 311.535 217.649 281.59 100.063 187.798 37.04 c 0
 185.026 35.1777 187.241 36.0527 173.423 28.0752 c 0
 163.216 22.1816 151.373 16.2725 137.784 11.2607 c 0
 111.994 1.74902 92.4004 0.0302734 78.1904 0.0302734 c 0
 61.4482 0.0302734 61.5166 12.9609 78.3418 28.8936 c 0
 95.167 44.8262 122.41 57.7568 139.152 57.7568 c 0
 146.067 57.7568 152.84 58.5576 156.743 59.998 c 0
 156.747 59.999 156.062 59.6943 155.392 59.3076 c 1
 159.195 61.5039 153.069 57.7773 154.887 58.998 c 0
 210.964 96.6787 261.646 323.904 261.676 324.017 c 0
 298.689 472.075 328.059 578.301 395.611 636.47 c 0
 404.408 644.044 415.484 652.27 428.494 659.78 c 0
 433.506 662.674 456.988 676.207 483.922 681.169 c 0
 490.699 682.418 497.244 683.136 504.742 683.136 c 0
 521.484 683.136 521.416 670.205 504.59 654.272 c 0
 487.766 638.34 460.521 625.409 443.779 625.409 c 0
 441.135 625.409 439.416 625.149 438.824 625.04 c 0
 437.906 624.871 442.102 625.994 446.525 628.548 c 1
408.186 57.7568 m 2
 413.809 57.7568 424.125 57.9619 436.738 60.8516 c 0
 439.744 61.54 446.967 63.3848 450.023 65.1494 c 0
 450.027 65.1514 449.641 64.9912 449.35 64.7246 c 1
 453.678 68.6797 458.008 77.3408 459.898 84.9043 c 0
 463.059 97.5459 484.717 115.676 508.24 125.373 c 0
 531.766 135.069 548.293 132.68 545.133 120.038 c 0
 541.572 105.793 532.494 85.2324 507.744 62.6172 c 0
 498.223 53.917 484.934 43.6611 468.055 33.917 c 0
 441.961 18.8516 417.693 10.5742 396.996 5.83301 c 0
 379.045 1.71973 362.658 0.0302734 347.223 0.0302734 c 2
 -11.4873 0.0302734 l 2
 -28.2295 0.0302734 -28.1611 12.9609 -11.3359 28.8936 c 0
 5.48926 44.8262 32.7324 57.7568 49.4746 57.7568 c 2
 408.186 57.7568 l 2
EndSplineSet
Fore
324 625 m 2
 28 625 177 568 66 524 c 0
 56 520 48 518 41 518 c 0
 34 518 29 521 29 526 c 0
 29 551 70 625 176 660 c 0
 224 676 276 683 385 683 c 2
 624 683 l 2
 633 683 637 680 637 675 c 0
 637 660 595 625 563 625 c 2
 444 625 l 1
 398 575 356 397 347 359 c 0
 316 237 288 125 215 58 c 1
 408 58 l 2
 424 58 442 61 449 65 c 1
 462 78 454 103 508 125 c 0
 518 129 527 131 533 131 c 0
 541 131 546 128 546 123 c 0
 546 87 461 0 347 0 c 2
 -11 0 l 2
 -20 0 -24 3 -24 8 c 0
 -24 23 18 58 49 58 c 2
 139 58 l 2
 146 58 152 58 156 60 c 0
 212 99 262 324 262 324 c 2
 295 457 322 562 384 625 c 1
 324 625 l 2
EndSplineSet
EndChar
StartChar: J
Encoding: 74 74 11
Width: 677
Flags: HMW
Back
549.011 625.41 m 2
 504.683 625.41 467.441 612.338 442.899 598.169 c 0
 394.529 570.243 363.247 522.334 351.826 476.649 c 0
 348.666 464.008 327.009 445.878 303.484 436.181 c 0
 279.96 426.483 263.432 428.873 266.593 441.515 c 0
 285.399 516.745 344.842 583.199 424.867 629.401 c 0
 489.275 666.587 554.321 683.137 609.973 683.137 c 2
 826.057 683.136 l 2
 842.799 683.136 842.731 670.205 825.905 654.272 c 0
 809.08 638.34 781.837 625.409 765.095 625.409 c 2
 549.011 625.41 l 2
736.73 620.146 m 0
 723.461 612.485 732.019 617.485 724.649 610.543 c 0
 628.086 519.583 561.619 213.375 546.824 154.199 c 0
 528.166 79.5654 472.353 -13.7314 366.729 -74.7119 c 0
 314.087 -105.105 262.796 -119.385 217.045 -119.385 c 0
 144.344 -119.385 91.6934 -87.4385 65.4854 -42.0439 c 0
 44.4541 -5.61426 41.293 37.0137 51.9473 79.6318 c 0
 55.1074 92.2734 76.7656 110.403 100.29 120.101 c 0
 123.814 129.797 140.342 127.407 137.182 114.766 c 0
 127.043 74.2129 132.317 36.3945 149.573 6.50391 c 0
 180.18 -46.5098 237.924 -61.6582 278.007 -61.6582 c 0
 298.604 -61.6582 324.342 -57.541 348.698 -43.4795 c 0
 382.754 -23.8174 439.855 32.124 461.591 119.064 c 0
 510.753 315.717 560.476 513.036 664.312 610.848 c 0
 678.877 624.568 696.95 638.822 718.698 651.379 c 0
 748.357 668.502 774.679 677.403 800.335 681.214 c 0
 809.307 682.546 817.796 683.137 826.057 683.136 c 0
 842.799 683.136 842.731 670.205 825.905 654.272 c 0
 809.08 638.34 781.837 625.409 765.095 625.409 c 0
 758.905 625.409 754.377 624.889 751.434 624.451 c 0
 742.55 623.132 738.402 621.111 736.73 620.146 c 0
EndSplineSet
Fore
549 625 m 2
 437 625 370 550 352 477 c 0
 346 454 300 431 278 431 c 0
 271 431 266 433 266 438 c 0
 266 497 405 683 610 683 c 2
 826 683 l 2
 835 683 838 680 838 675 c 0
 838 660 797 625 765 625 c 0
 733 625 727 613 725 611 c 0
 628 520 562 213 547 154 c 0
 509 3 352 -119 217 -119 c 0
 119 -119 46 -58 46 33 c 0
 46 48 48 63 52 80 c 0
 58 102 104 126 126 126 c 0
 133 126 138 123 138 118 c 0
 138 114 132 101 132 74 c 0
 132 -4 193 -62 278 -62 c 0
 388 -62 447 60 462 119 c 0
 519 342 566 531 681 625 c 1
 549 625 l 2
EndSplineSet
EndChar
StartChar: K
Encoding: 75 75 12
Width: 760
Flags: HMW
Back
158.635 391.002 m 0
 178.988 472.415 191.624 553.738 196.347 633.836 c 1
 170.819 620.957 l 2
 147.127 609.004 126.732 607.852 125.296 618.386 c 0
 123.858 628.919 141.922 647.17 165.614 659.123 c 2
 237.858 695.572 l 2
 250.462 701.932 261.127 705.15 270.236 705.346 c 0
 279.346 705.54 283.699 702.643 283.453 696.549 c 0
 279.859 607.702 266.611 517.106 243.868 426.136 c 0
 210.1 291.061 167.036 156.089 114.951 22.1484 c 0
 109.721 8.69727 86.6846 -9.14941 63.5322 -17.6895 c 0
 40.3799 -26.2295 25.835 -22.2441 31.0654 -8.79395 c 0
 82.5479 123.597 125.182 257.189 158.635 391.002 c 0
666.537 644.34 m 0
 663.92 648.873 655.312 659.868 641.09 659.868 c 0
 621.168 659.868 569.676 639.844 503.625 601.71 c 0
 385.223 533.351 310.847 463.666 304.055 436.499 c 0
 296.459 406.116 330.238 282.639 401.848 158.607 c 0
 431.099 107.944 488.146 25.6055 529.346 23.3281 c 0
 529.547 23.3164 495.16 23.2979 530.371 23.2979 c 0
 552.859 23.2979 588.088 28.1074 618.336 45.5703 c 0
 641.166 58.752 659.992 78.9688 666.992 106.966 c 0
 669.947 118.784 685.568 131.712 701.863 135.823 c 0
 718.158 139.935 728.984 133.68 726.029 121.862 c 0
 715.064 78.0029 681.227 40.5225 636.244 14.5518 c 0
 618.883 4.52832 567.801 -22.0361 500.862 -22.0361 c 0
 465.651 -22.0361 496.711 -21.9229 496.688 -21.9219 c 0
 446.963 -19.1729 394.654 38.8203 344.583 125.546 c 0
 293.655 213.754 231.094 365.908 245.017 421.603 c 0
 261.068 485.81 398.406 582.32 485.717 632.729 c 0
 539.986 664.062 621.955 705.203 670.598 705.203 c 0
 698.279 705.203 714.645 693.265 723.803 677.402 c 0
 732.355 662.588 734.65 643.541 729.34 622.294 c 0
 726.385 610.477 710.762 597.549 694.467 593.438 c 0
 678.174 589.326 667.348 595.58 670.301 607.398 c 0
 673.707 621.019 672.137 634.645 666.537 644.34 c 0
EndSplineSet
Fore
30 -14 m 0
 30 -4 179 346 196 634 c 1
 171 621 l 2
 158 614 146 611 138 611 c 0
 132 611 125 613 125 620 c 0
 125 630 143 648 166 659 c 2
 238 696 l 2
 252 703 263 706 271 706 c 0
 279 706 283 702 283 697 c 0
 283 631 264 404 115 22 c 0
 106 -1 63 -22 41 -22 c 0
 34 -22 30 -20 30 -14 c 0
303 426 m 0
 303 328 447 29 530 23 c 0
 572 23 650 40 667 107 c 0
 671 125 696 137 712 137 c 0
 720 137 727 134 727 126 c 0
 727 125 726 123 726 122 c 0
 707 44 606 -22 499 -22 c 0
 385 -16 243 307 243 403 c 0
 243 410 244 416 245 422 c 0
 268 513 570 705 671 705 c 0
 711 705 732 679 732 644 c 0
 732 595 691 592 684 592 c 0
 676 592 670 596 670 603 c 0
 670 607 672 612 672 622 c 0
 672 643 660 660 641 660 c 0
 576 660 319 497 304 436 c 1
 303 434 303 430 303 426 c 0
EndSplineSet
EndChar
StartChar: L
Encoding: 76 76 13
Width: 688
Flags: HMW
Back
545.62 10.7158 m 0
 525.584 -0.851562 506.77 -8.59277 492.606 -13.1396 c 0
 481.032 -16.8555 461.851 -21.9297 441.332 -21.9297 c 0
 329.784 -21.9297 237.595 34.0371 135.343 34.0371 c 0
 130.956 34.0371 127.028 33.5146 124.501 32.7891 c 0
 123.877 32.6094 126.613 33.5078 130.174 35.5635 c 0
 130.213 35.5859 134.156 38.1436 134.355 38.3145 c 1
 133.924 37.9453 129.386 34.0615 123.979 25.2666 c 0
 114.662 10.1133 86.7305 -9.18066 61.6318 -17.7998 c 0
 36.5332 -26.4189 23.7246 -21.1162 33.041 -5.96289 c 0
 47.4229 17.4287 66.6387 33.7422 71.7188 38.0752 c 0
 81.7119 46.5967 95.1836 56.6748 112.285 66.5479 c 0
 138.574 81.7256 158.635 88.0879 168.245 90.8486 c 0
 177.591 93.5332 192.708 97.2002 209.646 97.2002 c 0
 321.193 97.2012 413.382 41.2334 515.634 41.2334 c 0
 520.858 41.2334 527.053 42.0322 530.523 43.1465 c 0
 531.697 43.5234 528.688 42.2539 527.731 41.7012 c 1
 527.736 41.7041 525.866 40.5029 526.1 40.6816 c 0
 535.469 47.8818 550.55 68.9736 556.508 92.8037 c 0
 559.686 105.517 583.84 125.516 610.422 137.444 c 0
 637.005 149.374 656 148.738 652.822 136.025 c 0
 640.56 86.9736 603.537 51.8906 578.638 32.7549 c 0
 568.94 25.3027 557.687 17.6826 545.62 10.7158 c 0
507.746 611.801 m 0
 494.815 634.197 474.483 641.934 457.307 641.934 c 0
 452.789 641.934 444.762 641.829 434.898 640.231 c 0
 426.473 638.867 418.635 636.382 416.171 634.96 c 0
 412.896 633.069 408.496 629.329 403.552 624.539 c 0
 324.417 547.865 277.8 353.289 257.642 272.656 c 0
 227.09 150.447 171.586 70.0537 115.171 14.6475 c 0
 97.6436 -2.56641 66.9941 -18.7754 46.7568 -21.5322 c 0
 26.5205 -24.29 24.3213 -12.5566 41.8477 4.65723 c 0
 91.1465 53.0732 135.761 127.17 161.327 229.436 c 0
 202.977 396.032 244.6 531.588 331.109 615.407 c 0
 348.007 631.779 370.214 649.739 398.282 665.944 c 0
 433.79 686.444 466.295 697.435 495.71 702.198 c 0
 508.15 704.213 519.933 705.097 531.609 705.097 c 0
 554.903 705.097 584.93 698.286 603.082 666.843 c 0
 617.886 641.202 620.826 605.89 611.391 568.146 c 0
 608.213 555.434 584.06 535.435 557.477 523.506 c 0
 530.894 511.576 511.898 512.213 515.077 524.925 c 0
 523.194 557.396 520.524 589.668 507.746 611.801 c 0
EndSplineSet
Fore
41 -22 m 0
 34 -22 30 -19 30 -15 c 0
 30 5 117 51 161 229 c 0
 207 413 255 583 398 666 c 0
 433 686 478 705 532 705 c 0
 600 705 617 648 617 610 c 0
 617 597 615 583 611 568 c 0
 607 550 556 515 526 515 c 0
 519 515 515 517 515 522 c 0
 515 526 520 538 520 561 c 0
 520 610 495 642 457 642 c 0
 417 642 410 631 404 625 c 0
 324 548 278 353 258 273 c 0
 242 207 213 144 180 94 c 1
 190 96 200 97 210 97 c 0
 321 97 413 41 516 41 c 0
 520 41 524 42 527 42 c 1
 537 50 551 70 557 93 c 0
 561 111 612 146 642 146 c 0
 649 146 653 144 653 139 c 0
 653 91 546 -22 441 -22 c 0
 330 -22 238 34 135 34 c 1
 119 17 80 -22 41 -22 c 0
EndSplineSet
EndChar
StartChar: M
Encoding: 77 77 14
Width: 1198
Flags: HMW
Back
95.1455 55.0176 m 0
 99.3408 52.8516 103.719 50.9385 108.255 49.2871 c 0
 119.012 45.3721 130.661 42.9355 142.886 42.0771 c 0
 175.344 39.7979 207.069 109.281 261.346 253.454 c 0
 263.928 260.313 266.468 267.175 268.966 274.037 c 0
 315.845 402.836 348.127 532.579 365.347 663.109 c 1
 365.843 662.93 l 1
 366.029 662.93 l 1
 365.934 673.276 380.567 688.59 399.929 698.02 c 0
 420.281 707.933 438.188 707.609 439.9 697.299 c 0
 464.396 549.768 497.167 405.451 538.086 264.911 c 0
 554.174 209.656 575.953 157.262 603.126 108.392 c 1
 574.062 80.2441 l 1
 559.902 34.2939 l 1
 554.038 34.3027 549.58 35.9297 547.512 39.2959 c 0
 543.973 45.0557 540.512 50.8662 537.127 56.7285 c 0
 506.605 109.601 482.381 166.61 464.804 226.98 c 0
 433.913 333.078 407.644 441.32 386.05 551.471 c 1
 365.718 455.139 337.89 358.036 302.83 261.712 c 0
 300.004 253.948 297.132 246.189 294.214 238.438 c 0
 253.022 129.021 184.452 -54.8701 113.471 -49.8848 c 0
 99.9512 -48.9355 87.0674 -46.249 75.0713 -41.8828 c 0
 70.0127 -40.042 65.1123 -37.9014 60.3896 -35.4639 c 0
 57.1895 -33.8115 41.0166 -25.4697 30.8262 -12.8936 c 0
 23.6973 -4.0957 26.8174 22.375 37.791 46.1943 c 0
 48.7646 70.0137 63.4561 82.2051 70.585 73.4082 c 0
 75.4482 67.4072 84.584 60.4697 95.1455 55.0176 c 0
1036.14 204.665 m 0
 1031.38 152.637 1031.77 101.486 1037.3 51.9385 c 0
 1037.75 47.8896 1038.96 44.2588 1040.74 41.1631 c 0
 1046.77 30.7285 1056.74 29.125 1060.83 28.9502 c 1
 1071.71 34.4385 l 2
 1095.4 46.3916 1115.79 47.5439 1117.23 37.0107 c 0
 1118.67 26.4766 1100.6 8.22656 1076.91 -3.72754 c 2
 1059.71 -12.4062 l 2
 1038.32 -23.1953 1020.46 -27.3857 1007.97 -28.4736 c 0
 1000.51 -29.124 969.832 -30.2061 956.655 -7.38477 c 0
 953.912 -2.63379 952.1 2.83887 951.408 9.02832 c 0
 945.742 59.7539 945.335 112.176 950.232 165.632 c 0
 962.426 298.717 981.154 432.726 1006.35 567.215 c 1
 1084.34 659.3 l 1
 1108.05 686.805 l 1
 1108.05 686.088 1107.97 685.326 1107.8 684.52 c 0
 1074.64 523.813 1050.71 363.601 1036.14 204.665 c 0
741.42 291.278 m 0
 858.244 423.848 972.239 558.44 1083.3 694.922 c 0
 1096.37 710.987 1107.45 708.067 1108.03 688.404 c 0
 1108.61 668.741 1098.46 639.744 1085.39 623.679 c 0
 973.33 485.964 858.381 350.248 740.646 216.646 c 0
 686.647 155.37 630.008 96.4541 570.954 40.0859 c 0
 557.981 27.7021 548.845 35.6436 550.56 57.8105 c 0
 552.274 79.9785 564.195 108.02 577.168 120.403 c 0
 634.594 175.219 689.438 232.291 741.42 291.278 c 0
EndSplineSet
Fore
366 663 m 0
 366 680 402 705 426 705 c 0
 434 705 439 703 440 697 c 0
 464 550 497 405 538 265 c 0
 552 219 569 175 590 133 c 1
 643 184 693 237 741 291 c 2
 1083 695 l 2
 1089 702 1094 705 1099 705 c 0
 1104 705 1108 699 1108 687 c 0
 1108 671 1064 508 1036 205 c 0
 1034 180 1033 154 1033 130 c 0
 1033 53 1037 30 1061 29 c 1
 1072 34 l 2
 1085 41 1096 44 1105 44 c 0
 1111 44 1117 43 1117 36 c 0
 1117 25 1100 8 1077 -4 c 2
 1060 -12 l 2
 1038 -24 1018 -29 1001 -29 c 0
 973 -29 954 -14 951 9 c 0
 948 36 947 64 947 92 c 0
 947 178 972 372 998 520 c 1
 741 217 l 2
 687 155 630 96 571 40 c 0
 567 36 563 34 560 34 c 0
 554 34 550 36 548 39 c 2
 537 57 l 2
 488 142 441 271 386 551 c 1
 366 455 338 358 303 262 c 2
 294 238 l 2
 254 130 186 -50 116 -50 c 0
 87 -50 27 -29 27 3 c 0
 27 31 50 76 65 76 c 0
 70 76 96 42 144 42 c 0
 176 42 207 112 261 253 c 2
 269 274 l 2
 316 403 349 533 366 663 c 0
EndSplineSet
EndChar
StartChar: N
Encoding: 78 78 15
Width: 818
Flags: HMW
Back
798.112 646.086 m 1
 796.653 642.749 794.335 636.759 791.162 628.042 c 0
 777.502 590.511 762.877 539.354 745.679 477.976 c 0
 702.308 323.186 663.184 168.263 628.348 13.3467 c 1
 627.22 16.4111 l 1
 590.294 16.4111 l 1
 624.786 168.13 663.318 319.979 705.849 471.769 c 0
 714.499 502.643 737.757 586.68 757.298 640.367 c 0
 768.11 670.075 775.481 684.577 777.725 689.005 c 0
 790.098 713.429 799.383 721.734 801.613 723.789 c 0
 854.706 772.692 920.644 775.25 965.915 775.25 c 0
 976.404 775.25 978.567 754.643 970.744 729.251 c 0
 962.92 703.858 948.057 683.251 937.567 683.251 c 0
 878.699 683.251 831.583 676.705 798.112 646.086 c 1
39.8691 54.8379 m 0
 43.8906 52.8037 48.0732 50.9951 52.3975 49.4209 c 0
 63.3799 45.4238 75.2744 42.9424 87.7549 42.0771 c 0
 109.1 40.5977 126.462 58.04 155.945 139.041 c 0
 163.632 160.162 171.282 183.296 178.832 206.199 c 0
 228.846 357.916 262.144 510.729 277.988 663.574 c 1
 278.222 662.93 l 1
 319.933 662.93 l 1
 304.29 535.45 273.945 379.275 215.31 201.409 c 0
 207.745 178.463 199.339 152.899 189.81 126.716 c 0
 154.841 30.6416 110.069 -53.4707 58.3535 -49.8857 c 0
 44.5742 -48.9307 31.4395 -46.1982 19.2139 -41.749 c 0
 14.4004 -39.9971 9.72754 -37.9785 5.21191 -35.6934 c 0
 1.93262 -34.0342 -14.6406 -25.6602 -25.1191 -12.9609 c 0
 -32.2939 -4.26465 -29.2363 22.1543 -18.293 46.0107 c 0
 -7.35059 69.8672 7.35449 82.1709 14.5303 73.4746 c 0
 19.5801 67.3545 29.0098 60.3311 39.8691 54.8379 c 0
516.247 223.546 m 0
 534.436 178.552 555.53 135.264 579.422 93.8809 c 0
 593.8 68.9775 609.189 44.7646 625.568 21.2861 c 0
 631.257 13.1309 619.954 -3.02441 600.338 -14.7744 c 0
 580.723 -26.5244 560.186 -29.4424 554.496 -21.2871 c 0
 537.86 2.56152 522.232 27.1494 507.634 52.4346 c 0
 483.376 94.4512 461.963 138.394 443.501 184.063 c 0
 380.952 338.793 325.991 497.705 278.766 660.382 c 0
 275.936 670.131 290.055 686.537 310.282 697.003 c 0
 330.509 707.469 349.223 708.05 352.053 698.301 c 0
 399.122 536.159 453.903 377.768 516.247 223.546 c 0
EndSplineSet
Fore
278 663 m 0
 278 680 315 705 339 705 c 0
 346 705 351 703 352 698 c 0
 373 625 484 260 579 94 c 2
 600 59 l 1
 632 192 729 593 778 689 c 0
 807 747 865 775 966 775 c 0
 973 775 976 768 976 759 c 0
 976 732 955 683 938 683 c 0
 879 683 832 677 798 646 c 1
 772 587 686 269 628 13 c 1
 627 16 l 1
 627 -0 591 -26 567 -26 c 0
 561 -26 557 -24 554 -21 c 0
 511 41 473 110 444 184 c 0
 393 310 347 438 306 569 c 1
 277 391 230 237 190 127 c 0
 156 33 112 -50 62 -50 c 0
 31 -50 -29 -29 -29 3 c 0
 -29 31 -6 76 9 76 c 0
 13 76 41 42 90 42 c 0
 120 42 140 89 179 206 c 0
 229 358 262 510 278 663 c 0
EndSplineSet
EndChar
StartChar: O
Encoding: 79 79 16
Width: 794
Flags: HMW
Back
352.915 654.46 m 0
 271.302 607.341 186.603 513.792 156.481 393.311 c 0
 132.343 296.757 141.353 203.614 179.872 136.895 c 0
 217.189 72.2568 279.739 35.54 357.944 35.54 c 0
 421.343 35.54 468.097 58.1953 491.203 71.5352 c 0
 560.277 111.415 643.753 201.271 674.439 324.017 c 0
 699.663 424.912 692.594 517.139 658.644 575.943 c 0
 647.702 594.896 614.271 647.626 534.223 647.626 c 0
 530.44 647.626 517.764 647.485 504.587 644.027 c 0
 496.889 642.007 490.814 639.402 485.388 636.27 c 0
 474.007 629.699 480.725 633.633 474.97 629.277 c 0
 441.073 603.625 402.567 550.639 373.115 479.239 c 0
 367.51 465.652 344.242 447.872 321.178 439.551 c 0
 298.112 431.23 283.942 435.504 289.547 449.091 c 0
 331.967 551.925 386.607 609.753 431.082 643.411 c 0
 442.158 651.793 454.355 659.996 467.356 667.502 c 0
 480.879 675.31 508.105 689.611 539.921 697.962 c 0
 552.099 701.158 571.49 705.353 595.185 705.353 c 0
 669.208 705.353 715.603 671.482 742.731 624.491 c 0
 778.51 562.52 786.252 465.465 759.673 359.15 c 0
 731.234 245.394 647.174 119.941 509.234 40.3027 c 0
 461.848 12.9434 384.739 -22.1865 296.982 -22.1865 c 0
 199.016 -22.1865 132.952 23.9658 95.7832 88.3467 c 0
 55.0469 158.906 45.6025 255.597 71.248 358.177 c 0
 100.242 474.153 188.355 601.096 334.884 685.692 c 0
 340.627 689.008 344.989 691.426 349.351 693.792 c 0
 372.854 706.545 394.619 709.143 397.934 699.592 c 0
 401.247 690.041 384.862 671.939 361.358 659.187 c 0
 358.812 657.806 356.267 656.395 352.915 654.46 c 0
EndSplineSet
Fore
776 482 m 0
 776 186 506 -22 297 -22 c 0
 139 -22 57 97 57 247 c 0
 57 422 163 586 335 686 c 2
 349 694 l 2
 363 701 377 705 386 705 c 0
 392 705 398 704 398 697 c 0
 398 687 383 671 361 659 c 0
 215 580 143 424 143 288 c 0
 143 152 216 36 358 36 c 0
 532 36 689 220 689 440 c 0
 689 552 643 648 534 648 c 0
 511 648 494 643 475 629 c 0
 441 604 403 551 373 479 c 0
 364 456 321 436 300 436 c 0
 293 436 288 438 288 443 c 0
 288 445 289 447 290 449 c 0
 366 635 500 705 595 705 c 0
 724 705 776 604 776 482 c 0
EndSplineSet
EndChar
StartChar: P
Encoding: 80 80 17
Width: 694
Flags: HMW
Back
220.479 298.461 m 0
 248.621 411.029 267.508 523.49 276.924 634.681 c 0
 277.914 646.38 297.965 664.652 321.681 675.468 c 0
 345.396 686.283 363.839 685.564 362.849 673.865 c 0
 353.329 561.454 334.229 447.663 305.713 333.595 c 0
 277.196 219.527 239.359 105.569 192.527 -7.19141 c 0
 186.878 -20.7939 163.582 -38.5664 140.528 -46.8604 c 0
 117.475 -55.1553 103.35 -50.8467 108.999 -37.2432 c 0
 155.034 73.5977 192.337 185.894 220.479 298.461 c 0
150.875 596.295 m 0
 143.09 591.8 136.409 586.563 130.068 579.634 c 0
 121.113 569.848 110.97 554.38 105.621 532.987 c 0
 102.461 520.346 80.8037 502.215 57.2793 492.519 c 0
 33.7539 482.821 17.2266 485.211 20.3877 497.853 c 0
 26.8105 523.548 39.5586 547.606 61.8389 571.956 c 0
 79.9658 591.766 105.491 611.735 132.844 627.527 c 0
 142.871 633.316 139.788 631.442 141.535 632.39 c 0
 217.496 673.566 296.973 683.137 350.367 683.136 c 0
 367.109 683.136 367.041 670.205 350.216 654.272 c 0
 333.391 638.34 306.146 625.409 289.405 625.409 c 0
 244.259 625.409 188.467 616.716 153.454 597.736 c 0
 152.417 597.175 154.25 598.243 150.875 596.295 c 0
531.208 304.172 m 0
 618.193 354.393 638.275 433.61 641.751 447.515 c 0
 650.482 482.441 646.147 512.527 631.75 537.464 c 0
 597.939 596.027 509.592 625.409 412.94 625.409 c 2
 289.405 625.409 l 2
 272.663 625.409 272.73 638.34 289.556 654.272 c 0
 306.382 670.205 333.625 683.136 350.367 683.136 c 2
 473.902 683.136 l 2
 578.953 683.136 677.914 651.7 715.839 586.012 c 0
 731.971 558.069 737.27 523.785 726.985 482.649 c 0
 705.885 398.245 638.886 324.696 549.239 272.939 c 0
 467.047 225.485 380.689 204.982 307.833 204.982 c 0
 291.091 204.982 291.159 217.913 307.984 233.846 c 0
 324.81 249.778 352.053 262.709 368.795 262.709 c 0
 435.353 262.709 492.13 281.61 531.208 304.172 c 0
EndSplineSet
Fore
732 524 m 0
 732 377 529 205 308 205 c 0
 299 205 296 208 296 213 c 0
 296 228 337 263 369 263 c 0
 555 263 646 394 646 482 c 0
 646 570 552 625 413 625 c 2
 358 625 l 1
 330 370 258 151 193 -7 c 0
 183 -30 140 -51 119 -51 c 0
 112 -51 108 -49 108 -43 c 0
 108 -29 242 241 276 625 c 1
 129 619 112 558 106 533 c 0
 100 510 54 487 32 487 c 0
 25 487 20 489 20 495 c 0
 20 520 57 586 142 632 c 0
 217 674 297 683 350 683 c 2
 474 683 l 2
 595 683 732 638 732 524 c 0
EndSplineSet
EndChar
StartChar: Q
Encoding: 81 81 18
Width: 813
Flags: HMW
Back
434.257 53.7803 m 0
 450.321 59.4268 469.513 67.4541 491.088 79.9102 c 0
 565.672 122.971 646.393 209.662 674.981 324.017 c 0
 696.663 410.744 688.312 494.324 653.569 554.504 c 0
 619.253 613.943 561.361 647.627 489.972 647.627 c 0
 453.132 647.627 410.319 639.297 368.088 614.915 c 0
 308.713 580.636 234.412 502.914 207.243 394.236 c 0
 192.033 333.399 198.552 274.994 223.347 232.048 c 0
 232.884 215.527 268.92 160.228 349.865 160.228 c 0
 378.82 160.228 415.239 166.559 450.054 186.555 c 0
 473.292 199.901 496.077 203.672 500.913 194.971 c 0
 505.75 186.27 490.814 168.376 467.577 155.029 c 0
 403.623 118.297 340.735 102.501 288.903 102.501 c 0
 215.329 102.501 166.354 136.566 139.259 183.5 c 0
 112.377 230.061 105.243 292.037 122.009 359.102 c 0
 147.454 460.884 223.582 573.129 350.056 646.147 c 0
 418.469 685.646 487.785 705.354 550.935 705.354 c 0
 642.073 705.354 703.302 662.559 737.657 603.052 c 0
 774.591 539.08 783.415 451.947 760.215 359.15 c 0
 732.388 247.842 647.332 128.474 509.119 48.6777 c 0
 481.532 32.75 448.889 16.8271 412.426 4.00879 c 0
 312.581 -31.0928 212.493 -28.8633 145.932 -28.8633 c 0
 129.189 -28.8633 129.257 -15.9326 146.082 0 c 0
 162.907 15.9316 190.15 28.8633 206.894 28.8633 c 0
 305.367 28.8633 371.29 31.6436 434.257 53.7803 c 0
638.384 -68.335 m 0
 644.698 -68.335 649.508 -67.7305 652.564 -67.2549 c 0
 659.865 -66.1211 667.44 -63.8721 671.897 -61.2988 c 0
 677.905 -57.8311 684.061 -50.3428 686.319 -47.3096 c 0
 691.794 -39.958 697.318 -29.6025 700.327 -17.5674 c 0
 703.487 -4.92578 725.145 13.2041 748.67 22.9014 c 0
 772.194 32.5986 788.722 30.209 785.562 17.5674 c 0
 780.18 -3.95996 769.495 -20.5762 761.798 -30.9111 c 0
 746.462 -51.5039 721.649 -74.2178 689.93 -92.5322 c 0
 659.577 -110.056 629.242 -120.046 604.361 -123.911 c 0
 594.916 -125.379 585.972 -126.062 577.422 -126.062 c 0
 415.957 -126.062 296.943 -28.8633 145.932 -28.8633 c 0
 129.189 -28.8633 129.257 -15.9326 146.082 0 c 0
 162.908 15.9326 190.151 28.8633 206.894 28.8633 c 0
 368.358 28.8633 487.371 -68.335 638.384 -68.335 c 0
EndSplineSet
Fore
773 459 m 0
 773 238 585 52 384 -5 c 1
 468 -33 547 -68 638 -68 c 0
 654 -68 688 -67 700 -18 c 0
 706 5 752 28 774 28 c 0
 781 28 786 26 786 21 c 0
 786 -23 688 -126 577 -126 c 0
 416 -126 297 -29 146 -29 c 0
 137 -29 134 -26 134 -21 c 0
 134 -6 175 29 207 29 c 0
 338 29 413 35 491 80 c 0
 623 156 687 296 687 418 c 0
 687 542 620 648 490 648 c 0
 327 648 199 474 199 329 c 0
 199 232 259 160 350 160 c 0
 430 160 457 200 488 200 c 0
 497 200 501 196 501 191 c 0
 501 162 385 103 289 103 c 0
 176 103 113 184 113 289 c 0
 113 489 337 705 551 705 c 0
 696 705 773 597 773 459 c 0
EndSplineSet
EndChar
StartChar: R
Encoding: 82 82 19
Width: 845
Flags: HMW
Back
224.09 312.908 m 0
 251.026 420.652 268.71 528.29 276.917 634.6 c 0
 277.816 646.258 297.797 664.533 321.517 675.393 c 0
 345.235 686.252 363.755 685.604 362.854 673.946 c 0
 354.551 566.371 336.652 457.353 309.324 348.042 c 0
 281.996 238.731 245.342 129.531 199.697 21.5752 c 0
 193.928 7.92871 170.559 -9.82031 147.535 -18.0439 c 0
 124.511 -26.2676 110.507 -21.8662 116.277 -8.2207 c 0
 161.063 97.707 197.154 205.164 224.09 312.908 c 0
150.875 596.295 m 0
 143.09 591.8 136.409 586.563 130.068 579.634 c 0
 121.113 569.848 110.97 554.38 105.621 532.987 c 0
 102.461 520.346 80.8037 502.215 57.2793 492.519 c 0
 33.7539 482.821 17.2266 485.211 20.3877 497.853 c 0
 26.8105 523.548 39.5586 547.606 61.8389 571.956 c 0
 79.9658 591.766 105.491 611.735 132.844 627.527 c 0
 142.871 633.316 139.788 631.442 141.535 632.39 c 0
 217.496 673.566 296.973 683.137 350.367 683.136 c 0
 367.109 683.136 367.041 670.205 350.216 654.272 c 0
 333.391 638.34 306.146 625.409 289.405 625.409 c 0
 244.259 625.409 188.467 616.716 153.454 597.736 c 0
 152.936 597.456 154.506 598.391 150.875 596.295 c 0
552.919 363.598 m 0
 585.287 382.286 625.319 419.379 640.038 478.254 c 0
 648.863 513.553 645.926 540.089 634.183 560.43 c 0
 602.814 614.763 506.182 625.41 390.001 625.41 c 2
 289.405 625.409 l 2
 272.663 625.409 272.73 638.34 289.556 654.272 c 0
 306.381 670.205 333.625 683.136 350.366 683.136 c 2
 450.963 683.137 l 2
 570.257 683.137 681.142 673.288 718.271 608.978 c 0
 732.077 585.062 735.347 553.687 725.272 513.389 c 0
 708.653 446.914 656.279 381.63 570.95 332.365 c 0
 498.6 290.594 424.172 273.293 362.326 273.293 c 0
 345.584 273.293 345.652 286.224 362.478 302.156 c 0
 379.303 318.089 406.546 331.02 423.288 331.02 c 0
 478.066 331.02 523.689 346.723 552.919 363.598 c 0
729.218 16.6416 m 0
 703.327 1.69434 678.719 -7.79102 660.109 -13.1357 c 0
 638.121 -19.4512 618.132 -22.1865 599.675 -22.1865 c 0
 567.487 -22.1865 539.445 -6.54102 509.688 45.001 c 0
 480.199 96.0801 457.592 166.083 429.187 215.285 c 0
 402.944 260.739 379.646 273.293 362.326 273.293 c 0
 345.584 273.293 345.652 286.224 362.478 302.156 c 0
 379.303 318.089 406.546 331.02 423.288 331.02 c 0
 455.477 331.02 483.518 315.375 513.274 263.833 c 0
 542.765 212.754 565.371 142.75 593.777 93.5488 c 0
 620.02 48.0947 643.318 35.541 660.637 35.541 c 0
 672.691 35.541 683.594 37.4385 691.936 39.834 c 0
 698.906 41.8359 705.533 44.6113 711.186 47.874 c 0
 716.992 51.2266 721.895 55.1318 724.159 57.0117 c 0
 732.994 64.3418 744.344 76.2588 754.179 91.7412 c 0
 763.575 106.531 788.891 123.343 810.688 129.266 c 0
 832.485 135.188 842.55 127.991 833.153 113.2 c 0
 810.729 77.9014 782.948 54.9551 775.649 48.8984 c 0
 761.879 37.4727 746.074 26.374 729.218 16.6416 c 0
EndSplineSet
Fore
837 123 m 0
 837 104 731 -22 600 -22 c 0
 508 -22 483 122 429 215 c 0
 403 261 380 273 362 273 c 0
 354 273 350 276 350 281 c 0
 350 297 392 331 423 331 c 0
 555 331 645 416 645 517 c 0
 645 599 560 625 390 625 c 2
 358 625 l 1
 333 382 263 172 200 22 c 0
 190 -1 147 -22 126 -22 c 0
 119 -22 115 -20 115 -14 c 0
 115 -0 246 258 276 625 c 1
 129 619 112 558 106 533 c 0
 100 510 54 487 32 487 c 0
 25 487 20 489 20 495 c 0
 20 520 57 586 142 632 c 0
 217 674 297 683 350 683 c 2
 451 683 l 2
 571 683 731 676 731 556 c 0
 731 452 629 343 491 296 c 1
 551 226 587 36 661 36 c 0
 687 36 723 42 754 92 c 0
 766 110 801 131 824 131 c 0
 832 131 837 128 837 123 c 0
EndSplineSet
EndChar
StartChar: S
Encoding: 83 83 20
Width: 604
Flags: HMW
Back
552.511 541.736 m 2
 557.887 563.24 556.588 585.166 547.511 600.889 c 0
 543.382 608.039 537.682 613.922 530.641 618.094 c 0
 513.918 628.002 475.438 647.626 417.845 647.627 c 0
 379.667 647.627 351.549 637.235 339.366 631.542 c 0
 336.177 630.052 333.364 628.578 330.771 627.08 c 0
 324.441 623.426 319.294 619.648 313.844 614.631 c 0
 301.799 603.544 287.518 584.748 280.936 558.422 c 0
 273.882 530.208 278.215 505.35 290.671 483.773 c 0
 303.042 462.346 329.524 432.609 397.489 402.595 c 0
 459.914 375.026 526.223 341.652 556.624 288.993 c 0
 572.245 261.936 578.332 229.637 568.429 190.022 c 0
 554.229 133.225 509.545 78.6133 435.423 35.8193 c 0
 360.574 -7.39453 282.5 -22.1865 223.002 -22.1865 c 0
 138.671 -22.1855 72.9512 13.3525 35.79 67.6533 c 0
 34.6191 69.3652 33.4932 71.1055 32.1143 73.4941 c 0
 15.0977 102.969 15.0859 140.085 29.5029 176.726 c 0
 35.2354 191.293 41.0156 201.026 45.4785 207.491 c 0
 55.5781 222.118 71.0957 237.063 92.4424 249.388 c 1
 107.03 255.476 119.072 264.359 141.609 267.272 c 0
 143.878 267.565 150.291 267.976 152.275 267.976 c 0
 169.018 267.976 168.95 255.045 152.125 239.112 c 0
 135.299 223.18 108.056 210.249 91.3135 210.249 c 0
 90.4678 210.249 92.2568 210.434 90.8145 210.247 c 0
 90.8135 210.247 110.593 218.205 110.474 218.155 c 1
 110.473 218.154 126.744 232.17 122.803 226.461 c 0
 121.464 224.521 117.692 218.604 113.329 207.514 c 0
 101.834 178.301 102.297 146.127 116.202 122.042 c 0
 117.376 120.009 118.334 118.528 119.331 117.071 c 0
 156.034 63.4385 217.071 35.541 283.964 35.541 c 0
 342.924 35.541 391.018 51.8252 417.391 67.0518 c 0
 469.823 97.3232 481.595 148.491 483.194 154.889 c 0
 491.447 187.903 486.609 216.069 472.536 240.445 c 0
 445.152 287.877 382.596 320.386 321.066 347.559 c 0
 247.934 379.855 219.899 412.161 206.583 435.226 c 0
 192.603 459.442 186.946 488.267 195.701 523.287 c 0
 201.348 545.871 215.048 579.551 254.966 616.295 c 0
 268.782 629.014 288.13 644.104 312.739 658.313 c 0
 322.044 663.685 331.512 668.596 340.911 672.988 c 0
 368.733 685.99 419.031 705.354 478.808 705.354 c 0
 529.217 705.354 572.995 693.492 609.266 672.002 c 0
 619.128 666.158 626.408 658.427 631.599 649.437 c 0
 643.011 629.67 644.5 603.892 637.745 576.871 c 2
 634.554 564.104 l 2
 631.394 551.462 609.737 533.332 586.212 523.634 c 0
 562.688 513.937 546.159 516.326 549.319 528.968 c 2
 552.511 541.736 l 2
EndSplineSet
Fore
223 -22 m 0
 114 -22 19 44 19 126 c 0
 19 217 104 268 152 268 c 0
 161 268 165 265 165 260 c 0
 165 249 141 227 117 216 c 1
 109 201 105 184 105 167 c 0
 105 100 185 36 284 36 c 0
 404 36 487 96 487 186 c 0
 487 262 411 308 321 348 c 0
 228 389 191 442 191 494 c 0
 191 601 343 705 479 705 c 0
 519 705 607 692 632 649 c 0
 639 637 642 623 642 608 c 0
 642 598 640 588 638 577 c 2
 635 564 l 2
 629 541 582 518 560 518 c 0
 552 518 547 521 549 529 c 2
 553 542 l 2
 555 551 556 559 556 567 c 0
 556 590 546 609 531 618 c 0
 514 628 475 648 418 648 c 0
 323 648 278 589 278 533 c 0
 278 402 489 406 557 289 c 0
 567 271 573 250 573 226 c 0
 573 95 395 -22 223 -22 c 0
EndSplineSet
EndChar
StartChar: T
Encoding: 84 84 21
Width: 542
Flags: HMW
Back
280.102 148.265 m 2
 392.49 597.819 l 2
 395.669 610.531 419.822 630.531 446.405 642.46 c 0
 472.988 654.389 491.983 653.753 488.805 641.04 c 2
 376.416 191.485 l 2
 358.872 121.31 334.128 51.1943 302.45 -17.8809 c 0
 295.983 -31.9805 269.65 -51.7441 243.671 -61.9961 c 0
 217.692 -72.248 201.855 -69.124 208.322 -55.0234 c 0
 238.889 11.6279 262.983 79.792 280.102 148.265 c 2
774.453 647.784 m 0
 764.072 641.791 745.542 631.569 718.155 625.424 c 0
 700.479 621.457 683.741 619.717 642.19 619.716 c 2
 210.163 619.717 l 2
 205.807 619.717 198.325 619.543 188.959 617.89 c 0
 182.511 616.752 172.081 614.026 166.7 610.92 c 0
 160.649 607.427 151.985 597.483 149.326 593.965 c 0
 129.37 567.565 129.926 541.572 130.013 536.717 c 0
 130.212 525.609 108.646 505.69 81.875 492.253 c 0
 55.1035 478.816 33.2139 476.926 33.0156 488.033 c 0
 32.7803 501.157 34.8135 532.136 62.8428 569.216 c 0
 81.3965 593.76 110.431 619.746 148.812 641.904 c 0
 184.687 662.616 219.758 674.57 248.135 679.579 c 0
 260.938 681.839 272.954 682.88 284.465 682.88 c 2
 716.492 682.88 l 2
 737.004 682.88 758.331 682.989 771.332 685.906 c 0
 774.644 686.65 769.987 686.518 756.564 678.769 c 1
 756.573 678.773 732.775 655.791 734.789 663.848 c 0
 737.968 676.561 762.121 696.56 788.704 708.489 c 0
 815.287 720.418 834.281 719.782 831.104 707.069 c 0
 825.382 684.184 801.717 663.524 774.453 647.784 c 0
EndSplineSet
Fore
44 481 m 0
 35 481 33 484 33 490 c 0
 33 580 168 683 284 683 c 0
 749 683 l 1
 762 694 796 717 820 717 c 0
 827 717 831 715 831 710 c 0
 831 693 792 642 718 625 c 0
 700 621 684 620 642 620 c 2
 483 620 l 1
 376 191 l 2
 359 121 334 51 302 -18 c 0
 291 -43 240 -67 217 -67 c 0
 211 -67 207 -65 207 -61 c 0
 207 -56 251 32 280 148 c 2
 392 598 l 2
 394 604 401 612 410 620 c 1
 210 620 l 2
 177 620 163 612 149 594 c 0
 131 570 130 546 130 539 c 0
 130 515 70 481 44 481 c 0
EndSplineSet
EndChar
StartChar: U
Encoding: 85 85 22
Width: 627
Flags: HMW
Back
216.344 20.8252 m 0
 189.721 5.45508 136.079 -22.1865 83.8174 -22.1865 c 0
 58.0283 -22.1865 23.4756 -15.916 1.56738 22.0312 c 0
 -17.7168 55.4336 -21.7461 107.812 -7.41895 165.121 c 0
 30.707 317.627 176.299 558.318 143.891 614.454 c 0
 139.299 622.407 131.866 625.41 122.613 625.41 c 0
 119.02 625.41 110.034 625.182 100.151 623.003 c 0
 88.8115 620.504 81.5557 616.726 78.3047 614.849 c 0
 76.5078 613.812 74.6611 612.637 72.5586 611.135 c 0
 51.3604 595.992 25.4902 587.725 14.8115 592.681 c 0
 4.13281 597.636 12.6709 613.947 33.8691 629.09 c 0
 42.2383 635.067 51.1289 640.802 60.2734 646.081 c 0
 88.0234 662.103 116.628 672.898 140.981 678.267 c 0
 156.312 681.646 170.41 683.137 183.575 683.137 c 0
 209.842 683.137 222.003 673.353 227.979 663.002 c 0
 266.867 595.643 117.658 359.628 77.8145 200.255 c 0
 64.8418 148.364 68.2002 100.814 85.6553 70.5791 c 0
 102.198 41.9258 125.554 35.54 144.779 35.54 c 0
 162.145 35.54 178.554 40.6504 198.312 52.0586 c 0
 351.456 140.475 562.129 473.655 602.892 636.706 c 0
 606.052 649.348 627.71 667.478 651.234 677.175 c 0
 674.759 686.872 691.286 684.482 688.126 671.84 c 0
 641.062 483.586 417.223 136.802 216.344 20.8252 c 0
542.165 199.085 m 0
 529.905 150.047 522.54 101.054 520.194 52.8887 c 0
 519.956 47.9883 521.035 43.5117 523.127 39.8887 c 0
 524.026 38.3311 528.729 30.5273 538.719 29.8359 c 0
 541.351 29.6543 539.924 31.2168 529.107 25.7598 c 1
 546.309 34.4385 l 2
 570.001 46.3916 590.396 47.5439 591.832 37.0098 c 0
 593.269 26.4756 575.206 8.22559 551.514 -3.72754 c 2
 534.312 -12.4072 l 2
 510.881 -24.2275 489.832 -28.8672 473.799 -27.7588 c 0
 463.354 -27.0361 447.492 -23.3018 439.039 -8.65918 c 0
 435.599 -2.7002 433.807 4.48926 434.219 12.9404 c 0
 436.633 62.5293 444.217 113.093 456.931 163.951 c 0
 496.563 322.48 545.478 480.917 603.437 638.46 c 0
 608.34 651.789 631.168 669.69 654.392 678.42 c 0
 677.616 687.148 692.484 683.415 687.581 670.086 c 0
 630.091 513.818 581.529 356.541 542.165 199.085 c 0
EndSplineSet
Fore
234 633 m 0
 234 530 70 272 70 139 c 0
 70 78 97 36 145 36 c 0
 257 36 477 332 569 541 c 2
 603 638 l 2
 613 669 696 701 688 672 c 0
 680 640 667 605 651 566 c 0
 602 423 521 159 521 58 c 0
 521 46 521 32 537 30 c 1
 549 36 565 44 579 44 c 0
 585 44 592 43 592 36 c 0
 592 25 574 8 552 -4 c 2
 534 -12 l 2
 513 -23 494 -28 479 -28 c 0
 451 -28 434 -13 434 10 c 0
 434 83 463 192 491 293 c 1
 312 47 165 -22 84 -22 c 0
 13 -22 -16 31 -16 98 c 0
 -16 236 149 496 149 594 c 0
 149 614 141 625 123 625 c 0
 70 625 61 591 24 591 c 0
 15 591 10 594 10 600 c 0
 10 627 113 683 184 683 c 0
 220 683 234 664 234 633 c 0
EndSplineSet
EndChar
StartChar: V
Encoding: 86 86 23
Width: 612
Flags: HMW
Back
158.277 559.897 m 0
 125.07 617.415 81.834 631.213 46.6797 631.213 c 0
 30.8213 631.213 28.3965 642.821 41.2676 657.124 c 0
 54.1387 671.428 77.4551 683.035 93.3135 683.035 c 0
 177.419 683.035 214.51 628.287 230.065 601.345 c 0
 312.959 457.764 278.6 155.925 261.507 43.4082 c 1
 236.358 22.9619 216.376 7.96191 204.676 0 c 1
 181.107 -27.3438 l 1
 181.127 -25.8037 181.471 -24.0967 182.168 -22.2373 c 1
 178.358 -32.4082 261.107 381.785 158.277 559.897 c 0
603.387 475.492 m 0
 605.8 482.122 607.66 488.178 609.126 494.042 c 0
 611.394 503.109 610.771 505.418 610.812 507.849 c 0
 611.282 535.699 596.339 571.679 558.157 585.575 c 0
 548.375 589.136 537.383 591.083 525.337 591.083 c 0
 514.848 591.083 512.684 611.69 520.508 637.082 c 0
 528.332 662.475 543.194 683.082 553.684 683.082 c 0
 567.419 683.082 580.008 680.87 591.341 676.746 c 0
 628.228 663.32 659.306 625.921 658.207 560.859 c 0
 657.941 545.144 655.717 526.886 650.71 506.86 c 0
 647.046 492.202 642.464 477.489 637.251 463.167 c 0
 551.568 227.756 247.018 -9.77246 197.689 -43.3398 c 0
 185.185 -51.8496 178.166 -39.3389 182.022 -15.416 c 0
 185.879 8.50781 199.157 34.8301 211.662 43.3398 c 0
 321.029 117.764 552.396 335.398 603.387 475.492 c 0
EndSplineSet
Fore
93 683 m 0
 245 683 283 504 283 315 c 0
 283 229 275 145 267 85 c 1
 409 198 611 417 611 509 c 0
 611 551 579 591 525 591 c 0
 519 591 516 598 516 608 c 0
 516 634 536 683 554 683 c 0
 615 683 657 640 657 565 c 0
 657 306 209 -46 191 -46 c 0
 185 -46 181 -39 181 -28 c 0
 181 -19 210 132 210 287 c 0
 210 459 173 631 47 631 c 0
 38 631 33 635 33 641 c 0
 33 658 69 683 93 683 c 0
EndSplineSet
EndChar
StartChar: W
Encoding: 87 87 24
Width: 986
Flags: HMW
Back
146.608 568.911 m 0
 137.436 584.8 109.077 631.213 46.6797 631.213 c 0
 30.8213 631.213 28.3965 642.821 41.2676 657.124 c 0
 54.1387 671.428 77.4551 683.035 93.3135 683.035 c 0
 169.508 683.035 202.871 637.249 218.396 610.358 c 0
 283.374 497.81 262.454 271.979 239.543 128.408 c 1
 296.739 201.473 349.062 274.883 396.708 347.968 c 0
 455.872 438.721 509.296 531.23 556.756 624.82 c 1
 552.315 637.76 l 2
 549.016 647.264 562.697 663.652 582.853 674.341 c 0
 603.009 685.03 622.045 685.992 625.344 676.488 c 0
 662.697 568.877 691.01 456.734 710.051 340.935 c 0
 725.275 248.343 734.542 153.604 737.808 57.1924 c 1
 715.826 30.499 698.328 10.5205 688.545 0 c 2
 664.981 -27.3389 l 1
 663.664 85.8604 654.085 196.92 636.306 305.048 c 0
 621.152 397.203 600.074 487.038 573.188 574.091 c 1
 523.324 476.711 468.049 381.556 407.786 289.116 c 0
 334.063 176.032 253.075 67.3037 165.505 -36.4355 c 0
 152.421 -51.9355 141.635 -48.1914 141.429 -28.0791 c 0
 141.322 -17.6367 144.088 -4.8252 148.604 7.24902 c 1
 168.448 104.45 229.49 425.35 146.608 568.911 c 0
974.65 463.885 m 0
 978.663 474.909 982.014 485.012 984.035 494.041 c 0
 994.952 542.79 976.022 577.034 947.741 587.327 c 0
 941.081 589.751 933.521 591.083 925.03 591.083 c 0
 914.541 591.083 912.378 611.69 920.202 637.082 c 0
 928.025 662.475 942.889 683.082 953.378 683.082 c 0
 963.508 683.082 972.688 681.496 980.925 678.498 c 0
 1005.95 669.389 1054.13 634.715 1025.62 506.86 c 0
 1021.54 488.577 1015.16 469.81 1008.51 451.56 c 0
 930.506 237.232 710.611 -13.1973 687.256 -38.3135 c 0
 674.189 -52.3652 664.163 -46.6055 664.875 -25.4561 c 0
 665.587 -4.30664 676.77 24.2627 689.836 38.3145 c 0
 757.108 110.66 923.39 323.047 974.65 463.885 c 0
EndSplineSet
Fore
33 641 m 0
 33 658 69 683 93 683 c 0
 198 683 263 592 263 383 c 0
 263 312 255 228 240 128 c 1
 361 283 467 448 557 625 c 1
 552 638 l 2
 547 653 585 683 612 683 c 0
 619 683 624 681 625 676 c 0
 679 522 725 325 736 92 c 1
 849 227 987 435 987 521 c 0
 987 562 964 591 925 591 c 0
 918 591 915 598 915 608 c 0
 915 634 936 683 953 683 c 0
 1003 683 1034 645 1034 577 c 0
 1034 363 731 9 687 -38 c 0
 682 -44 678 -46 674 -46 c 0
 668 -46 664 -38 665 -24 c 0
 662 215 622 417 573 574 c 1
 440 314 289 110 166 -36 c 0
 160 -43 155 -46 151 -46 c 0
 143 -46 141 -36 141 -27 c 0
 141 -17 144 -5 149 7 c 1
 177 146 189 259 189 349 c 0
 189 546 129 631 47 631 c 0
 38 631 33 635 33 641 c 0
EndSplineSet
EndChar
StartChar: X
Encoding: 88 88 25
Width: 712
Flags: HMW
Back
617.679 26.0039 m 0
 602.952 17.502 589.321 12.1533 578.53 8.79004 c 0
 553.054 0.849609 530.106 0.0302734 516.649 0.0302734 c 0
 496.152 0.0302734 469.427 5.53809 451.949 35.8105 c 0
 436.689 62.2412 432.224 98.7607 428.946 132.637 c 2
 392.631 507.867 l 2
 389.398 541.262 384.598 576.045 371.456 598.809 c 0
 369.145 602.812 357.749 625.409 329.883 625.409 c 0
 319.475 625.409 307.414 624.565 300.79 622.501 c 0
 300.783 622.499 303.254 623.278 307.847 625.93 c 0
 314.318 629.666 318.56 633.234 319.201 634.27 c 1
 317.941 632.236 316.507 628.894 315.49 624.826 c 0
 312.33 612.185 290.673 594.055 267.147 584.357 c 0
 243.623 574.66 227.096 577.051 230.256 589.692 c 0
 232.832 599.995 236.834 607.344 239.796 612.124 c 0
 253.766 634.673 278.411 650.579 289.814 657.162 c 0
 304.541 665.665 318.173 671.014 328.964 674.377 c 0
 354.44 682.316 377.388 683.137 390.845 683.137 c 0
 411.342 683.137 438.067 677.629 455.544 647.356 c 0
 470.804 620.926 475.27 584.406 478.548 550.53 c 2
 514.863 175.3 l 2
 518.095 141.905 522.896 107.121 536.037 84.3584 c 0
 538.349 80.3545 549.745 57.7568 577.611 57.7578 c 0
 588.02 57.7578 600.08 58.6016 606.703 60.666 c 0
 606.71 60.668 604.23 59.8828 599.647 57.2373 c 1
 599.651 57.2393 587.331 47.3447 588.293 48.8984 c 0
 589.553 50.9307 590.987 54.2734 592.004 58.3408 c 0
 595.165 70.9824 616.822 89.1123 640.347 98.8096 c 0
 663.871 108.507 680.398 106.116 677.238 93.4746 c 0
 674.662 83.1709 670.659 75.8223 667.697 71.043 c 0
 653.728 48.4932 629.082 32.5879 617.679 26.0039 c 0
58.3135 23.0469 m 0
 49.0098 39.1621 47.6465 61.2354 53.5635 84.9043 c 0
 57.1797 99.3672 64.1289 107.337 68.6826 113.348 c 0
 159.483 233.178 647.981 467.835 713.314 554.056 c 0
 716.07 557.693 717.538 560.477 718.201 563.129 c 0
 722.719 581.201 721.428 599.74 714.597 611.573 c 0
 709.012 621.247 700.535 625.41 693.366 625.41 c 0
 676.624 625.41 676.692 638.341 693.518 654.273 c 0
 710.343 670.206 737.586 683.137 754.328 683.137 c 0
 768.061 683.137 788.093 678.467 798.685 660.121 c 0
 807.989 644.005 809.352 621.932 803.436 598.264 c 0
 801.276 589.624 795.92 579.854 788.316 569.82 c 0
 697.516 449.989 209.019 215.333 143.685 129.111 c 0
 140.929 125.474 139.461 122.689 138.798 120.038 c 0
 134.279 101.966 135.571 83.4268 142.402 71.5947 c 0
 147.987 61.9209 156.464 57.7568 163.633 57.7568 c 0
 180.375 57.7568 180.308 44.8262 163.481 28.8936 c 0
 146.656 12.9609 119.413 0.0302734 102.671 0.0302734 c 0
 88.9385 0.0302734 68.9053 4.7002 58.3135 23.0469 c 0
EndSplineSet
Fore
412 310 m 1
 143 150 136 136 136 100 c 0
 136 75 148 58 164 58 c 0
 172 58 176 55 176 50 c 0
 176 34 134 0 103 0 c 0
 67 0 50 27 50 58 c 0
 50 116 93 163 408 351 c 1
 393 508 l 2
 388 554 380 625 330 625 c 2
 316 625 l 1
 304 598 263 578 242 578 c 0
 235 578 230 581 230 587 c 0
 230 621 299 683 391 683 c 0
 461 683 472 618 479 551 c 2
 493 402 l 1
 717 536 721 551 721 584 c 0
 721 608 709 625 693 625 c 0
 685 625 681 628 681 633 c 0
 681 649 723 683 754 683 c 0
 790 683 807 656 807 626 c 0
 807 573 773 527 497 361 c 1
 515 175 l 2
 519 129 527 58 578 58 c 2
 592 58 l 1
 604 85 645 105 665 105 c 0
 673 105 678 102 678 96 c 0
 678 62 608 0 517 0 c 0
 447 0 436 65 429 133 c 2
 412 310 l 1
EndSplineSet
EndChar
StartChar: Y
Encoding: 89 89 26
Width: 666
Flags: HMW
Back
270.869 547.382 m 0
 238.976 602.625 195.739 631.213 143.596 631.213 c 0
 141.862 631.213 139.627 631.012 138.148 630.64 c 1
 137.629 630.191 136.642 629.157 134.561 626.39 c 0
 123.898 612.212 101.108 599.171 83.6875 597.28 c 0
 66.2666 595.39 60.7812 605.361 71.4424 619.538 c 0
 89.7207 643.844 109.53 654.643 120.627 662.079 c 0
 129.775 667.36 140.572 672.573 152.886 676.597 c 0
 166.894 681.174 179.392 683.035 190.23 683.035 c 0
 265.811 683.035 312.493 641.075 342.657 588.828 c 0
 423.281 449.18 414.106 183.682 404.687 65.2842 c 1
 378.165 39.2783 351.899 15.6562 326.874 -5.02148 c 1
 333.672 65.2734 365.032 384.282 270.869 547.382 c 0
136.109 -51.9697 m 0
 149.01 -56.665 163.438 -59.1992 178.927 -59.1992 c 0
 253.423 -59.1982 560.551 201.468 653.617 457.168 c 0
 659.576 473.539 664.565 489.667 668.56 505.644 c 0
 679.132 547.933 656.656 588.522 620.659 601.624 c 0
 611.43 604.983 601.039 606.826 589.608 606.826 c 0
 579.235 606.826 575.64 623.851 581.582 644.826 c 0
 587.523 665.802 600.765 682.826 611.138 682.826 c 0
 624.563 682.826 636.87 680.669 647.96 676.632 c 0
 708.261 654.685 725.46 582.577 707.503 510.748 c 0
 701.977 488.64 695.136 466.616 687.242 444.93 c 0
 574.205 134.361 240.906 -135.198 157.397 -135.199 c 0
 139.888 -135.199 123.571 -132.352 108.809 -126.979 c 0
 70.0186 -112.859 37.4385 -79.3545 30.334 -24.3389 c 0
 28.2529 -8.23047 36.1191 15.7471 47.8906 29.1826 c 0
 59.6621 42.6172 70.9043 40.4473 72.9854 24.3389 c 0
 77.0068 -6.80371 98.1992 -38.1719 136.109 -51.9697 c 0
EndSplineSet
Fore
30 -20 m 0
 30 11 50 38 62 38 c 0
 68 38 72 33 73 24 c 0
 78 -18 115 -59 179 -59 c 0
 206 -59 263 -25 330 31 c 1
 335 89 337 144 337 195 c 0
 337 477 264 631 144 631 c 2
 138 631 l 1
 137 630 111 597 80 597 c 0
 71 597 66 601 66 607 c 0
 66 622 125 683 190 683 c 0
 378 683 411 416 411 221 c 0
 411 176 409 135 407 101 c 1
 621 312 671 490 671 527 c 0
 671 568 642 607 590 607 c 0
 583 607 579 615 579 626 c 0
 579 652 598 683 611 683 c 0
 682 683 714 628 714 563 c 0
 714 546 712 528 708 511 c 0
 623 174 246 -135 157 -135 c 0
 77 -135 30 -74 30 -20 c 0
EndSplineSet
EndChar
StartChar: Z
Encoding: 90 90 27
Width: 722
Flags: HMW
Back
706.785 622.665 m 0
 678.327 606.235 655.754 599.755 645.741 597.296 c 0
 633.038 594.176 622.474 593.027 613.004 593.027 c 0
 527.895 593.027 461.085 619.716 382.522 619.717 c 0
 362.647 619.717 345.988 616.32 335.103 613.05 c 0
 325.665 610.215 320.752 607.654 318.782 606.517 c 0
 311.745 602.454 304.529 593.727 300.649 588.16 c 0
 290.745 573.95 287.179 560.396 286.028 555.795 c 0
 282.85 543.082 258.696 523.083 232.113 511.153 c 0
 205.53 499.225 186.535 499.86 189.714 512.573 c 0
 195.05 533.92 204.797 550.09 212.102 560.57 c 0
 230.684 587.231 260.931 614.43 300.894 637.502 c 0
 327.513 652.87 353.751 663.585 376.643 670.462 c 0
 394.837 675.928 423.952 682.88 456.825 682.88 c 0
 541.935 682.88 608.743 656.191 687.306 656.191 c 0
 691.495 656.191 694.834 656.807 695.945 657.08 c 0
 696.377 657.186 693.844 656.506 688.896 653.649 c 1
 688.934 653.671 683.434 649.998 683.434 649.998 c 0
 703.215 667.416 733.91 682.136 751.95 682.854 c 0
 769.99 683.571 768.577 670.018 748.796 652.599 c 0
 738.693 643.703 724.573 632.935 706.785 622.665 c 0
422.648 367.655 m 0
 511.062 454.228 595.236 545.52 674.405 640.854 c 0
 688.068 657.307 717.842 675.339 740.865 681.104 c 0
 763.889 686.868 771.486 678.194 757.824 661.742 c 0
 676.047 563.267 588.586 468.331 495.779 377.458 c 0
 373.365 257.594 246.021 142.099 114.115 31.3857 c 0
 93.3477 13.9551 62.7803 0.0244141 45.8857 0.291016 c 0
 28.9912 0.556641 32.1348 14.9199 52.9023 32.3516 c 0
 180.098 139.109 303.525 251.013 422.648 367.655 c 0
573.989 31.458 m 0
 547.44 16.1299 527.214 9.64355 517.502 6.83594 c 0
 502.91 2.61719 488.686 0.287109 474.611 0.287109 c 0
 359.821 0.287109 248.877 26.9756 138.679 26.9756 c 0
 134.5 26.9756 127.24 26.7988 118.192 25.1982 c 0
 107.815 23.3623 99.8164 20.6357 93.9961 17.2754 c 0
 93.8926 17.2158 93.791 17.1572 93.6885 17.0967 c 0
 67.5127 1.6875 41.708 -4.19922 36.0889 3.95508 c 0
 30.4707 12.1094 47.1543 31.2324 73.3301 46.6416 c 0
 73.8838 46.9678 75.5498 47.9385 76.1074 48.2607 c 0
 113.147 69.6455 149.091 81.8848 177.32 86.8789 c 0
 190.062 89.1328 201.844 90.1387 212.98 90.1387 c 0
 327.771 90.1387 438.715 63.4502 548.913 63.4502 c 0
 556.415 63.4502 560.742 64.751 560.945 64.8096 c 0
 561.308 64.9141 558.714 63.9512 556.101 62.4424 c 1
 556.228 62.5156 554.067 61.166 554.091 61.1836 c 0
 570.988 73.8643 596.393 113.164 607.265 156.651 c 0
 610.442 169.364 634.597 189.363 661.18 201.292 c 0
 687.762 213.221 706.757 212.585 703.579 199.872 c 0
 690.848 148.947 660.1 93.3604 604.064 51.3096 c 0
 598.622 47.2256 588.147 39.6318 573.989 31.458 c 0
533.7 339.367 m 0
 531.764 342.723 534.001 339.71 531.773 341.28 c 0
 521.458 348.549 491.709 350.057 444.569 350.057 c 2
 306.198 350.058 l 2
 291.887 350.058 286.832 360.138 294.917 372.558 c 0
 303.001 384.978 321.178 395.057 335.49 395.057 c 2
 473.86 395.057 l 2
 489.107 395.057 558.586 397.511 582.589 380.598 c 0
 585.798 378.336 588.571 375.598 590.542 372.185 c 0
 594.02 366.162 594.093 359.477 592.539 353.262 c 0
 589.606 341.531 574.1 328.699 557.926 324.617 c 0
 541.752 320.536 531.006 326.744 533.938 338.475 c 0
 533.976 338.625 533.938 338.957 533.7 339.367 c 0
EndSplineSet
Fore
765 675 m 0
 765 657 586 468 513 395 c 1
 562 393 594 385 594 361 c 0
 594 338 565 323 549 323 c 0
 528 323 537 337 532 341 c 0
 523 347 501 349 467 350 c 1
 374 260 278 172 180 87 c 1
 191 89 202 90 213 90 c 0
 328 90 439 63 549 63 c 0
 553 63 556 64 558 64 c 1
 574 79 597 116 607 157 c 0
 612 174 663 210 693 210 c 0
 700 210 704 207 704 202 c 0
 704 177 663 96 604 51 c 0
 550 11 501 0 475 0 c 0
 360 0 249 27 139 27 c 0
 89 27 82 0 46 0 c 0
 41 0 35 2 35 8 c 0
 35 14 41 22 53 32 c 0
 197 153 313 260 405 350 c 1
 306 350 l 2
 297 350 291 355 291 362 c 0
 291 375 314 395 335 395 c 2
 450 395 l 1
 534 480 594 547 636 595 c 1
 628 594 620 593 613 593 c 0
 528 593 461 620 383 620 c 0
 332 620 298 606 286 556 c 0
 282 538 231 503 201 503 c 0
 194 503 189 505 189 510 c 0
 189 561 311 683 457 683 c 0
 542 683 609 656 687 656 c 2
 691 656 l 1
 696 661 728 683 753 683 c 0
 761 683 765 680 765 675 c 0
EndSplineSet
EndChar
